# This file uses centimeters as units for non-parametric coordinates.

mtllib seelingNoBoardes_01_low.mtl
g default
v -100.498222 242.228668 49.018085
v -100.498222 331.904510 -112.898659
v 100.498222 331.904510 -112.898659
v -100.498222 326.172729 -83.643166
v -100.498222 312.017975 -38.564709
v -100.498222 288.302917 2.301186
v -100.498222 256.186981 36.956547
v 100.498222 256.186981 36.956547
v 100.498222 288.302917 2.301186
v 100.498222 312.017975 -38.564709
v 100.498222 326.172729 -83.643166
v 100.498222 242.228668 49.018085
v -100.498222 233.060974 49.018085
v 100.498222 233.060974 49.018085
v -100.498222 239.986053 41.347977
v 100.498222 239.986053 41.347977
v 100.498222 235.303574 41.347977
v -100.498222 235.303574 41.347977
vt 0.888499 0.031937
vt 0.889119 0.970674
vt 0.802808 0.970802
vt 0.802253 0.031851
vt 0.139425 0.031659
vt 0.139766 0.971298
vt 0.000336 0.971338
vt 0.000000 0.031682
vt 0.581772 0.971039
vt 0.581332 0.031715
vt 0.360760 0.971196
vt 0.360387 0.031659
vt 0.924479 0.960423
vt 0.925053 0.040206
vt 0.946089 0.035480
vt 0.945408 0.966839
vt 0.928135 0.000000
vt 0.982783 0.966872
vt 0.926307 1.000000
vt 0.983463 0.035486
vn 0.012891 -0.261598 -0.965091
vn -0.012891 -0.261598 -0.965091
vn 0.000000 -0.711987 -0.702193
vn 0.000000 -0.711987 -0.702193
vn 0.000000 -0.966027 -0.258441
vn 0.000000 -0.966027 -0.258441
vn 0.000000 -0.981343 -0.192265
vn 0.000000 -0.981343 -0.192265
vn 0.000000 -0.804120 -0.594466
vn 0.000000 -0.804120 -0.594466
vn 0.000000 -0.915102 -0.403223
vn 0.000000 -0.915102 -0.403223
vn -0.030190 0.741897 -0.669834
vn 0.030190 0.741897 -0.669834
vn 0.030190 -0.741897 -0.669834
vn -0.030190 -0.741897 -0.669834
vn 0.027071 -0.959463 -0.280531
vn -0.027071 -0.959463 -0.280531
s 1
g seelingNoBoardes_01_low
usemtl initialShadingGroup
f 12/1/1 1/2/2 7/3/3 8/4/4
f 11/5/5 4/6/6 2/7/7 3/8/8
f 7/3/3 6/9/9 9/10/10 8/4/4
f 6/9/9 5/11/11 10/12/12 9/10/10
f 5/11/11 4/6/6 11/5/5 10/12/12
f 15/13/13 16/14/14 17/15/15 18/16/16
f 1/2/2 12/1/1 16/14/14 15/13/13
f 12/1/1 14/17/17 17/15/15 16/14/14
f 14/20/17 13/18/18 18/16/16 17/15/15
f 13/19/18 1/2/2 15/13/13 18/16/16
