# This file uses centimeters as units for non-parametric coordinates.

mtllib halfWallNoBoarders_01_low.mtl
g default
v -100.498222 40.803078 49.018085
v 100.498222 40.803078 49.018085
v 100.498222 242.228668 49.018085
v -100.498222 35.660545 49.018085
v 100.498222 35.660545 49.018085
v -100.498222 40.803078 42.356766
v 100.498222 40.803078 42.356766
v 100.498222 35.660545 42.356766
v -100.498222 35.660545 42.356766
v -100.498222 242.228668 49.018085
vt 0.974522 0.053821
vt 0.944084 1.000000
vt 0.030141 0.999857
vt 0.030285 0.083962
vt 0.944232 0.053816
vt 0.030289 0.053673
vt 0.030293 0.030289
vt 0.944236 0.030433
vt 0.000004 0.030285
vt 0.944241 0.000143
vt 0.974526 0.030438
vt 0.030298 0.000000
vt 0.000000 0.053668
vt 0.944228 0.084106
vn -0.000846 0.033053 -0.999453
vn 0.000000 0.000000 -1.000000
vn 0.000000 0.000000 -1.000000
vn 0.000846 0.033053 -0.999453
vn -0.020248 0.791402 -0.610961
vn 0.020248 0.791402 -0.610961
vn 0.020248 -0.791402 -0.610961
vn -0.020248 -0.791402 -0.610961
vn 0.025577 -0.999673 0.000000
vn -0.025577 -0.999673 0.000000
s 1
g halfWallNoBoarders_01_low
usemtl initialShadingGroup
f 1/14/1 10/2/2 3/3/3 2/4/4
f 6/5/5 7/6/6 8/7/7 9/8/8
f 1/14/1 2/4/4 7/6/6 6/5/5
f 2/13/4 5/9/9 8/7/7 7/6/6
f 5/12/9 4/10/10 9/8/8 8/7/7
f 4/11/10 1/1/1 6/5/5 9/8/8
