# This file uses centimeters as units for non-parametric coordinates.

mtllib halfWallwBoarders_01_low.mtl
g default
v -100.498222 39.593937 49.018085
v 100.498222 39.593937 49.018085
v 100.498222 140.000000 49.018085
v -100.498222 35.120449 49.018085
v 100.498222 35.120449 49.018085
v -100.498222 40.022064 42.356766
v 100.498222 40.022064 42.356766
v 100.498222 34.879536 42.356766
v -100.498222 34.879536 42.356766
v -100.498222 140.000000 49.018085
v 97.298531 35.120449 49.018085
v 97.298531 34.879536 42.356766
v 97.298531 40.022064 42.356766
v 97.298531 40.022064 49.018085
v 97.298531 140.000000 49.018085
v -96.561363 35.120449 49.018085
v -96.561363 34.879536 42.356766
v -96.561363 40.022064 42.356766
v -96.561363 40.022064 49.018085
v -96.561363 140.000000 49.018085
v 97.298531 140.000000 43.360172
v 100.498222 140.000000 43.360172
v -100.498222 140.000000 43.360172
v -96.561363 140.000000 43.360172
vt 0.080740 0.956646
vt 0.630392 0.952466
vt 0.630500 0.966525
vt 0.080848 0.970705
vt 0.029142 0.924449
vt 0.028984 0.934866
vt 0.079428 1.000000
vt 0.006044 0.944326
vt 0.000000 0.928128
vt 0.006462 0.055406
vt 0.018911 0.037225
vt 0.081061 0.029296
vt 0.028907 0.065242
vt 0.000011 0.075208
vt 0.029064 0.078354
vt 0.080916 0.046594
vt 0.080907 0.075864
vt 0.080749 0.927376
vt 0.630601 0.075972
vt 0.630400 0.927607
vt 0.630753 0.033815
vt 0.630609 0.051113
vt 0.630892 0.991382
vt 0.631159 0.008958
vt 0.051634 0.075866
vt 0.051484 0.927356
vt 0.045182 0.943952
vt 0.044922 0.055803
vt 0.018677 0.962616
vt 0.079658 0.000000
vn -0.312745 0.661671 -0.681456
vn -0.888598 0.004603 -0.458663
vn 0.889030 0.004595 -0.457826
vn 0.893494 0.004286 -0.449055
vn 0.000000 -0.805444 -0.592672
vn 0.763555 -0.520110 -0.382714
vn 1.000000 0.000000 0.000000
vn 0.838081 -0.545190 0.019717
vn 0.000000 -0.999347 0.036142
vn -0.780520 -0.624722 0.022594
vn -1.000000 0.000000 0.000000
vn -0.850511 0.005020 -0.525932
vn -0.692920 -0.580737 -0.427325
vn 0.000000 -0.999347 0.036142
vn 0.000000 -0.805444 -0.592672
vn 0.304332 0.644240 -0.701667
vn 0.031687 0.066447 -0.997287
vn -0.031687 0.066447 -0.997287
vn 0.031758 0.000000 -0.999496
vn -0.031758 0.000000 -0.999496
vn -0.844699 0.005372 -0.535214
vn 0.844139 0.005380 -0.536098
vn 1.000000 0.000000 0.000000
vn -1.000000 0.000000 0.000000
s 1
g halfWallwBoarders_01_low
usemtl initialShadingGroup
f 13/1/1 21/2/2 22/3/3 7/4/4
f 12/5/5 13/26/1 7/27/4 8/6/6
f 2/29/7 5/8/8 8/6/6 7/27/4
f 5/8/8 11/9/9 12/5/5 8/6/6
f 4/10/10 1/11/11 6/28/12 9/13/13
f 12/5/5 11/9/9 16/14/14 17/15/15
f 17/15/15 18/25/16 13/26/1 12/5/5
f 18/25/16 19/17/17 14/18/18 13/26/1
f 19/17/17 20/19/19 15/20/20 14/18/18
f 17/15/15 16/14/14 4/10/10 9/13/13
f 6/28/12 18/25/16 17/15/15 9/13/13
f 6/12/12 23/21/21 24/22/22 18/16/16
f 14/18/18 15/20/20 21/2/2 13/1/1
f 3/23/23 2/7/7 7/4/4 22/3/3
f 1/30/11 10/24/24 23/21/21 6/12/12
f 20/19/19 19/17/17 18/16/16 24/22/22
