# This file uses centimeters as units for non-parametric coordinates.

mtllib shorterWallNoBoarders_01_low.mtl
g default
v -100.498222 2.972797 49.018085
v 100.498222 2.972797 49.018085
v 100.498222 130.000000 49.018085
v -100.498222 -2.169735 49.018085
v 100.498222 -2.169735 49.018085
v -100.498222 2.972797 42.356766
v 100.498222 2.972797 42.356766
v 100.498222 -2.169735 42.356766
v -100.498222 -2.169735 42.356766
v -100.498222 130.000000 49.018085
vt 1.000000 0.054971
vt 0.970524 0.548962
vt 0.032760 0.552005
vt 0.031258 0.089194
vt 0.968921 0.055072
vt 0.031157 0.058115
vt 0.031079 0.034122
vt 0.968843 0.031079
vt 0.000000 0.034223
vt 0.968742 0.000000
vt 0.999922 0.030978
vt 0.030978 0.003044
vt 0.000078 0.058216
vt 0.969022 0.086151
vn -0.001340 0.052368 -0.998627
vn 0.000000 0.000000 -1.000000
vn 0.000000 0.000000 -1.000000
vn 0.001340 0.052368 -0.998627
vn -0.020248 0.791402 -0.610961
vn 0.020248 0.791402 -0.610961
vn 0.020248 -0.791402 -0.610961
vn -0.020248 -0.791402 -0.610961
vn 0.025577 -0.999673 0.000000
vn -0.025577 -0.999673 0.000000
s 1
g shorterWallNoBoarders_01_low
usemtl initialShadingGroup
f 1/14/1 10/2/2 3/3/3 2/4/4
f 6/5/5 7/6/6 8/7/7 9/8/8
f 1/14/1 2/4/4 7/6/6 6/5/5
f 2/13/4 5/9/9 8/7/7 7/6/6
f 5/12/9 4/10/10 9/8/8 8/7/7
f 4/11/10 1/1/1 6/5/5 9/8/8
