# This file uses centimeters as units for non-parametric coordinates.

mtllib wall_01_low.mtl
g default
v -100.498222 36.142368 49.018085
v 100.498222 36.142368 49.018085
v 100.498222 237.567947 49.018085
v -100.498222 30.999838 49.018085
v 100.498222 30.999838 49.018085
v -100.498222 40.803078 42.356766
v 100.498222 40.803078 42.356766
v 100.498222 35.660545 42.356766
v -100.498222 35.660545 42.356766
v -100.498222 237.567947 49.018085
v 97.298531 30.999838 49.018085
v 97.298531 35.660545 42.356766
v 97.298531 40.803078 42.356766
v 97.298531 40.803078 49.018085
v 97.298531 237.567947 49.018085
v -96.561363 30.999838 49.018085
v -96.561363 35.660545 42.356766
v -96.561363 40.803074 42.356766
v -96.561363 40.803074 49.018085
v -96.561363 237.567947 49.018085
v 97.298531 237.567947 43.360172
v 100.498222 237.567947 43.360172
v -100.498222 237.567947 43.360172
v -96.561363 237.567947 43.360172
vt 0.087472 0.956492
vt 0.951513 0.952184
vt 0.951583 0.966235
vt 0.087542 0.970543
vt 0.035715 0.925458
vt 0.035449 0.937311
vt 0.067373 1.000000
vt 0.002964 0.943822
vt 0.000008 0.928194
vt 0.003208 0.056038
vt 0.021830 0.039471
vt 0.087562 0.029461
vt 0.035293 0.062776
vt 0.000000 0.075170
vt 0.035582 0.077545
vt 0.087473 0.046749
vt 0.087470 0.076001
vt 0.087475 0.927240
vt 0.951561 0.076055
vt 0.951515 0.927338
vt 0.951653 0.033921
vt 0.951563 0.051209
vt 0.951835 0.991080
vt 0.951909 0.009076
vt 0.058214 0.076002
vt 0.058226 0.927234
vt 0.055493 0.943375
vt 0.055188 0.056433
vt 0.021848 0.960538
vt 0.067397 0.000000
vn -0.500127 0.535942 -0.680176
vn -0.888019 0.002345 -0.459800
vn 0.890388 0.002321 -0.455196
vn 0.936246 0.001746 -0.351340
vn 0.000000 -0.562028 -0.827118
vn 0.781928 -0.350351 -0.515599
vn 1.000000 0.000000 0.000000
vn 0.627095 -0.638235 -0.446551
vn 0.000000 -0.819360 -0.573279
vn -0.547523 -0.685632 -0.479715
vn -1.000000 0.000000 0.000000
vn -0.907894 0.002083 -0.419194
vn -0.713896 -0.393561 -0.579191
vn 0.000000 -0.819360 -0.573279
vn 0.000000 -0.562028 -0.827118
vn 0.479486 0.514117 -0.711180
vn 0.031739 0.033818 -0.998924
vn -0.031739 0.033818 -0.998924
vn 0.031758 0.000000 -0.999496
vn -0.031758 0.000000 -0.999496
vn -0.846464 0.002715 -0.532439
vn 0.843388 0.002740 -0.537299
vn 1.000000 0.000000 0.000000
vn -1.000000 0.000000 0.000000
s 1
g wall_01_low
usemtl initialShadingGroup
f 13/1/1 21/2/2 22/3/3 7/4/4
f 12/5/5 13/26/1 7/27/4 8/6/6
f 2/29/7 5/8/8 8/6/6 7/27/4
f 5/8/8 11/9/9 12/5/5 8/6/6
f 4/10/10 1/11/11 6/28/12 9/13/13
f 12/5/5 11/9/9 16/14/14 17/15/15
f 17/15/15 18/25/16 13/26/1 12/5/5
f 18/25/16 19/17/17 14/18/18 13/26/1
f 19/17/17 20/19/19 15/20/20 14/18/18
f 17/15/15 16/14/14 4/10/10 9/13/13
f 6/28/12 18/25/16 17/15/15 9/13/13
f 6/12/12 23/21/21 24/22/22 18/16/16
f 14/18/18 15/20/20 21/2/2 13/1/1
f 3/23/23 2/7/7 7/4/4 22/3/3
f 1/30/11 10/24/24 23/21/21 6/12/12
f 20/19/19 19/17/17 18/16/16 24/22/22
