# This file uses centimeters as units for non-parametric coordinates.

mtllib pipeHorizontal_01_low.mtl
g default
v -50.377647 105.956253 41.678364
v -52.269867 101.274002 41.680668
v -50.377647 96.591751 41.678364
v -45.809429 94.652298 41.672855
v -41.241207 96.591751 41.667362
v -39.348991 101.274002 41.665089
v -41.241207 105.956253 41.667362
v -45.809429 107.895721 41.672855
v 51.788925 105.956253 42.827854
v 53.727043 101.274002 42.831806
v 51.788925 96.591751 42.827854
v 47.109863 94.652298 42.818256
v 42.430786 96.591751 42.808628
v 40.492668 101.274002 42.804646
v 42.430786 105.956253 42.808628
v 47.109863 107.895721 42.818256
v 52.805775 107.026169 49.563282
v 55.188297 101.274002 49.583225
v 55.229961 101.274002 43.928623
v 52.848946 107.026169 43.923756
v 52.805775 95.521835 49.563282
v 52.848946 95.521835 43.923756
v 47.053818 93.139221 49.515125
v 47.100712 93.139221 43.911930
v 41.301838 95.521835 49.466999
v 41.352455 95.521835 43.900105
v 38.919304 101.274002 49.447041
v 38.971489 101.274002 43.895191
v 41.301838 107.026169 49.466999
v 41.352455 107.026169 43.900105
v 47.053818 109.408798 49.515125
v 47.100712 109.408798 43.911930
v -51.830070 107.446625 43.041737
v -54.324589 101.274002 43.044727
v -51.830070 95.101379 43.041737
v -45.807808 92.544601 43.034443
v -39.785492 95.101379 43.027225
v -37.290985 101.274002 43.024189
v -39.785492 107.446625 43.027225
v -45.807808 110.003418 43.034443
v -51.821960 107.446625 49.797504
v -54.316452 101.274002 49.800556
v -51.821960 95.101379 49.797504
v -45.799679 92.544601 49.790241
v -39.777367 95.101379 49.783009
v -37.282867 101.274002 49.779987
v -39.777367 107.446625 49.783009
v -45.799679 110.003418 49.790241
v 51.453327 105.956253 3.169407
v 53.374451 101.274002 2.405720
v 51.453327 96.591751 3.169407
v 46.815231 94.652298 5.013096
v 42.177147 96.591751 6.856754
v 40.256008 101.274002 7.620426
v 42.177147 105.956253 6.856754
v 46.815231 107.895721 5.013096
v -50.032143 105.956253 2.479710
v -45.484589 107.895721 4.325840
v -40.937046 105.956253 6.172001
v -39.051388 101.274002 6.935215
v -40.937046 96.591751 6.172001
v -45.484589 94.652298 4.325840
v -50.032143 96.591751 2.479710
v -51.915810 101.274002 1.715031
v -39.009777 105.956253 -5.408794
v 40.244473 105.956253 -5.013210
v -38.998970 101.274002 -7.481899
v 40.255360 101.274002 -7.107723
v -39.010715 96.591751 -5.408123
v 40.245407 96.591751 -5.012524
v -38.839371 94.652298 -0.497082
v 40.417339 94.652298 0.256886
v -39.046185 96.591751 4.776432
v 40.207153 96.591751 5.359959
v 40.203552 101.274002 7.580158
v -39.047756 105.956253 4.777592
v 40.208706 105.956253 5.361134
v -38.839371 107.895721 -0.497082
v 40.417339 107.895721 0.256886
vt 0.183392 0.998037
vt 0.148181 1.000000
vt 0.148048 0.967951
vt 0.180747 0.966522
vt 0.112958 0.998344
vt 0.115338 0.966811
vt 0.078277 0.994329
vt 0.083203 0.963211
vt 0.044012 0.987659
vt 0.051794 0.957842
vt 0.010721 0.978413
vt 0.276474 0.947668
vt 0.252254 0.986732
vt 0.244210 0.956983
vt 0.218045 0.993709
vt 0.212849 0.962632
vt 0.148009 0.958679
vt 0.180316 0.956580
vt 0.115682 0.956868
vt 0.084375 0.953149
vt 0.054467 0.947978
vt 0.026128 0.940833
vt 0.241450 0.947141
vt 0.211589 0.952579
vt 0.175746 0.052066
vt 0.143174 0.050120
vt 0.143011 0.037808
vt 0.176552 0.038755
vt 0.110647 0.052862
vt 0.109504 0.039593
vt 0.079775 0.057709
vt 0.077274 0.043797
vt 0.050233 0.062990
vt 0.045834 0.050468
vt 0.021908 0.070665
vt 0.273669 0.059002
vt 0.236328 0.061052
vt 0.240686 0.048346
vt 0.206714 0.056227
vt 0.208956 0.042180
vt 0.142031 0.000000
vt 0.178699 0.000919
vt 0.105503 0.001932
vt 0.069960 0.006641
vt 0.034808 0.014827
vt 0.286328 0.022536
vt 0.250289 0.011673
vt 0.214562 0.004706
vt 0.147066 0.756217
vt 0.173899 0.755378
vt 0.120223 0.755655
vt 0.093811 0.751754
vt 0.065756 0.745536
vt 0.258119 0.737859
vt 0.228298 0.744717
vt 0.200272 0.751208
vt 0.197191 0.255052
vt 0.171244 0.251208
vt 0.224840 0.261104
vt 0.254513 0.267829
vt 0.064215 0.262097
vt 0.091875 0.255747
vt 0.117802 0.251575
vt 0.144519 0.250703
vt 0.172321 0.295924
vt 0.174238 0.709094
vt 0.146618 0.706503
vt 0.144934 0.298849
vt 0.199887 0.288265
vt 0.202567 0.719127
vt 0.119248 0.709405
vt 0.117294 0.296268
vt 0.091017 0.719730
vt 0.089654 0.288953
vt 0.062923 0.730719
vt 0.061911 0.276116
vt 0.035761 0.738054
vt 0.230746 0.729833
vt 0.227522 0.275084
vt 0.264637 0.068548
vt 0.012653 0.061443
vt 0.000000 0.026238
vt 0.036074 0.738909
vt 0.258462 0.737004
vt 0.034359 0.269014
vt 0.285464 0.977190
vt 0.019451 0.948813
vt 0.269727 0.939746
vn 0.707964 0.706228 0.005421
vn 0.999972 0.000000 0.007511
vn 0.987003 -0.000000 -0.160702
vn 0.699027 0.696263 -0.163030
vn 0.707963 -0.706228 0.005421
vn 0.699026 -0.696264 -0.163030
vn 0.001343 -0.999999 -0.000138
vn 0.002690 -0.985604 -0.169051
vn -0.706616 -0.707568 -0.006426
vn -0.694802 -0.697424 -0.175642
vn -0.999957 0.000000 -0.009246
vn -0.983932 0.000000 -0.178542
vn -0.706616 0.707568 -0.006426
vn -0.694803 0.697423 -0.175642
vn 0.001343 0.999999 -0.000137
vn 0.002690 0.985604 -0.169051
vn 0.998389 0.000000 -0.056742
vn 0.713165 0.698820 -0.055204
vn 0.713164 -0.698820 -0.055204
vn 0.012242 -0.998580 -0.051854
vn -0.701263 -0.711209 -0.049112
vn -0.998839 0.000000 -0.048184
vn -0.701264 0.711208 -0.049112
vn 0.012242 0.998580 -0.051854
vn -0.719688 0.689986 -0.077253
vn -0.997001 -0.000000 -0.077385
vn -0.983171 -0.000000 -0.182687
vn -0.703152 0.686775 -0.184169
vn -0.719687 -0.689987 -0.077253
vn -0.703151 -0.686775 -0.184169
vn -0.012413 -0.997075 -0.075414
vn -0.000224 -0.982517 -0.186170
vn 0.708020 -0.702582 -0.071316
vn 0.702705 -0.686776 -0.185859
vn 0.997614 0.000000 -0.069034
vn 0.982729 0.000000 -0.185053
vn 0.708021 0.702581 -0.071316
vn 0.702706 0.686776 -0.185859
vn -0.012414 0.997075 -0.075414
vn -0.000224 0.982518 -0.186170
vn -0.999999 0.000000 0.001202
vn -0.715771 0.698334 0.000860
vn -0.715771 -0.698335 0.000861
vn 0.000000 -1.000000 0.000000
vn 0.715768 -0.698338 -0.000860
vn 0.999999 0.000000 -0.001202
vn 0.715768 0.698337 -0.000861
vn 0.000000 1.000000 -0.000000
vn 0.971146 0.000002 -0.238486
vn 0.732682 0.656297 -0.180143
vn 0.732683 -0.656298 -0.180137
vn 0.111433 -0.992952 -0.040374
vn -0.634469 -0.771807 0.041991
vn -0.999369 -0.000005 0.035507
vn -0.634473 0.771804 0.041979
vn 0.111437 0.992951 -0.040380
vn -0.114482 0.992553 -0.041625
vn -0.738480 0.649223 -0.182092
vn 0.641015 0.766281 0.043748
vn 0.428963 -0.000068 0.903322
vn 0.641010 -0.766284 0.043761
vn -0.114477 -0.992554 -0.041619
vn -0.738481 -0.649223 -0.182086
vn -0.971017 0.000002 -0.239011
vn -0.059626 0.717522 -0.693979
vn 0.066408 0.722963 -0.687688
vn 0.087639 -0.000084 -0.996152
vn -0.076475 -0.000084 -0.997072
vn -0.014495 0.999667 -0.021343
vn 0.015333 0.999681 -0.020090
vn 0.066418 -0.722963 -0.687687
vn -0.059637 -0.717521 -0.693979
vn 0.015332 -0.999680 -0.020143
vn -0.014493 -0.999666 -0.021394
vn -0.018637 -0.754668 0.655842
vn 0.008664 -0.750338 0.660998
vn -0.018803 -0.000077 0.999823
vn -0.018637 0.754672 0.655838
vn 0.008664 0.750341 0.660995
s 1
g pipeHorizontal_01_low
usemtl initialShadingGroup
f 17/1/1 18/2/2 19/3/3 20/4/4
f 18/2/2 21/5/5 22/6/6 19/3/3
f 21/5/5 23/7/7 24/8/8 22/6/6
f 23/7/7 25/9/9 26/10/10 24/8/8
f 25/9/9 27/11/11 28/87/12 26/10/10
f 27/86/11 29/13/13 30/14/14 28/12/12
f 29/13/13 31/15/15 32/16/16 30/14/14
f 31/15/15 17/1/1 20/4/4 32/16/16
f 10/17/17 9/18/18 20/4/4 19/3/3
f 11/19/19 10/17/17 19/3/3 22/6/6
f 12/20/20 11/19/19 22/6/6 24/8/8
f 13/21/21 12/20/20 24/8/8 26/10/10
f 14/22/22 13/21/21 26/10/10 28/87/12
f 15/23/23 14/88/22 28/12/12 30/14/14
f 16/24/24 15/23/23 30/14/14 32/16/16
f 9/18/18 16/24/24 32/16/16 20/4/4
f 1/25/25 2/26/26 34/27/27 33/28/28
f 2/26/26 3/29/29 35/30/30 34/27/27
f 3/29/29 4/31/31 36/32/32 35/30/30
f 4/31/31 5/33/33 37/34/34 36/32/32
f 5/33/33 6/35/35 38/81/36 37/34/34
f 6/80/35 7/37/37 39/38/38 38/36/36
f 7/37/37 8/39/39 40/40/40 39/38/38
f 8/39/39 1/25/25 33/28/28 40/40/40
f 33/28/28 34/27/27 42/41/41 41/42/42
f 34/27/27 35/30/30 43/43/43 42/41/41
f 35/30/30 36/32/32 44/44/44 43/43/43
f 36/32/32 37/34/34 45/45/45 44/44/44
f 37/34/34 38/81/36 46/82/46 45/45/45
f 38/36/36 39/38/38 47/47/47 46/46/46
f 39/38/38 40/40/40 48/48/48 47/47/47
f 40/40/40 33/28/28 41/42/42 48/48/48
f 9/18/18 10/17/17 50/49/49 49/50/50
f 10/17/17 11/19/19 51/51/51 50/49/49
f 11/19/19 12/20/20 52/52/52 51/51/51
f 12/20/20 13/21/21 53/53/53 52/52/52
f 13/21/21 14/22/22 54/83/54 53/53/53
f 14/88/22 15/23/23 55/55/55 54/54/54
f 15/23/23 16/24/24 56/56/56 55/55/55
f 16/24/24 9/18/18 49/50/50 56/56/56
f 58/57/57 57/58/58 1/25/25 8/39/39
f 59/59/59 58/57/57 8/39/39 7/37/37
f 60/60/60 59/59/59 7/37/37 6/80/35
f 61/61/61 60/85/60 6/35/35 5/33/33
f 62/62/62 61/61/61 5/33/33 4/31/31
f 63/63/63 62/62/62 4/31/31 3/29/29
f 64/64/64 63/63/63 3/29/29 2/26/26
f 57/58/58 64/64/64 2/26/26 1/25/25
f 65/65/65 66/66/66 68/67/67 67/68/68
f 66/66/66 65/65/65 78/69/69 79/70/70
f 67/68/68 68/67/67 70/71/71 69/72/72
f 69/72/72 70/71/71 72/73/73 71/74/74
f 71/74/74 72/73/73 74/75/75 73/76/76
f 73/76/76 74/75/75 75/77/77 60/85/60
f 60/60/60 75/84/77 77/78/78 76/79/79
f 76/79/79 77/78/78 79/70/70 78/69/69
f 65/65/65 67/68/68 64/64/64 57/58/58
f 67/68/68 69/72/72 63/63/63 64/64/64
f 69/72/72 71/74/74 62/62/62 63/63/63
f 71/74/74 73/76/76 61/61/61 62/62/62
f 73/76/76 60/85/60 61/61/61
f 60/60/60 76/79/79 59/59/59
f 76/79/79 78/69/69 58/57/57 59/59/59
f 78/69/69 65/65/65 57/58/58 58/57/57
f 49/50/50 50/49/49 68/67/67 66/66/66
f 50/49/49 51/51/51 70/71/71 68/67/67
f 51/51/51 52/52/52 72/73/73 70/71/71
f 52/52/52 53/53/53 74/75/75 72/73/73
f 53/53/53 54/83/54 75/77/77 74/75/75
f 54/54/54 55/55/55 77/78/78 75/84/77
f 55/55/55 56/56/56 79/70/70 77/78/78
f 56/56/56 49/50/50 66/66/66 79/70/70
