# This file uses centimeters as units for non-parametric coordinates.

mtllib seelingPipe_01_low.mtl
g default
v -50.377647 293.417816 -25.079533
v -52.269867 293.420105 -20.397285
v -50.377647 293.417816 -15.715034
v -45.809429 293.412292 -13.775581
v -41.241207 293.406799 -15.715034
v -39.348991 293.404541 -20.397285
v -41.241207 293.406799 -25.079533
v -45.809429 293.412292 -27.019001
v 51.788925 294.567291 -25.079533
v 53.727043 294.571259 -20.397285
v 51.788925 294.567291 -15.715034
v 47.109863 294.557678 -13.775581
v 42.430786 294.548065 -15.715034
v 40.492668 294.544098 -20.397285
v 42.430786 294.548065 -25.079533
v 47.109863 294.557709 -27.019001
v 52.805775 303.324890 -25.804966
v 55.188297 301.325256 -20.411518
v 55.229961 295.668060 -20.397282
v 52.848946 295.663208 -26.149448
v 52.805775 299.288269 -15.032063
v 52.848946 295.663208 -14.645119
v 47.053818 298.407166 -12.817833
v 47.100712 295.651367 -12.262505
v 41.301838 299.198090 -15.065853
v 41.352455 295.639526 -14.645119
v 38.919304 301.197723 -20.459309
v 38.971489 295.634644 -20.397282
v 41.301838 303.234741 -25.838749
v 41.352455 295.639557 -26.149448
v 47.053818 304.115814 -28.053005
v 47.100712 295.651367 -28.532078
v -51.830070 294.781189 -26.569904
v -54.324589 294.784180 -20.397285
v -51.830070 294.781189 -14.224663
v -45.807808 294.773865 -11.667885
v -39.785492 294.766663 -14.224663
v -37.290985 294.763641 -20.397285
v -39.785492 294.766663 -26.569904
v -45.807808 294.773895 -29.126698
v -51.821960 303.691742 -26.116505
v -54.316452 301.528748 -20.335255
v -51.821960 299.360046 -14.556164
v -45.799679 298.456116 -12.164497
v -39.777367 299.346497 -14.561253
v -37.282867 301.509491 -20.342472
v -39.777367 303.678162 -26.121586
v -45.799679 304.582092 -28.513279
v 51.453327 195.683960 -25.079535
v 53.374451 194.920273 -20.397285
v 51.453327 195.683960 -15.715034
v 46.815231 197.527649 -13.775581
v 42.177147 199.371307 -15.715034
v 40.256008 200.134979 -20.397284
v 42.177147 199.371307 -25.079535
v 46.815231 197.527649 -27.019001
v -50.032143 194.994263 -25.079535
v -45.484589 196.840393 -27.019003
v -40.937046 198.686554 -25.079535
v -39.051388 199.449768 -20.397284
v -40.937046 198.686554 -15.715034
v -45.484589 196.840393 -13.775581
v -50.032143 194.994263 -15.715034
v -51.915810 194.229584 -20.397285
v -39.009777 187.105759 -25.079533
v 40.244473 187.501343 -25.079533
v -38.998970 185.032654 -20.397282
v 40.255360 185.406830 -20.397282
v -39.010715 187.106430 -15.715031
v 40.245407 187.502029 -15.715031
v -38.839371 192.017471 -13.775581
v 40.417339 192.771439 -13.775581
v -39.046185 197.290985 -15.715034
v 40.207153 197.874512 -15.715034
v 40.203552 200.094711 -20.397284
v -39.047756 197.292145 -25.079535
v 40.208706 197.875687 -25.079535
v -38.839371 192.017471 -27.019005
v 40.417339 192.771439 -27.019003
vt 0.078118 0.998386
vt 0.059600 0.992270
vt 0.059890 0.973197
vt 0.077910 0.972706
vt 0.041681 0.985246
vt 0.041890 0.973044
vt 0.022447 0.981380
vt 0.023950 0.972009
vt 0.001934 0.981204
vt 0.150502 0.965275
vt 0.135155 0.987467
vt 0.131724 0.969051
vt 0.117085 0.996109
vt 0.113741 0.970753
vt 0.097651 1.000000
vt 0.095877 0.971895
vt 0.060166 0.967539
vt 0.078019 0.966818
vt 0.042370 0.967075
vt 0.024936 0.966062
vt 0.007921 0.964261
vt 0.130101 0.963017
vt 0.113005 0.964730
vt 0.095657 0.965921
vt 0.078182 0.039563
vt 0.060253 0.038649
vt 0.059829 0.031131
vt 0.078195 0.031636
vt 0.042398 0.039239
vt 0.041468 0.031197
vt 0.025239 0.040526
vt 0.023408 0.032437
vt 0.008516 0.042296
vt 0.152338 0.040162
vt 0.129966 0.043149
vt 0.132502 0.035794
vt 0.112762 0.041718
vt 0.114118 0.033797
vt 0.095601 0.040825
vt 0.096192 0.032461
vt 0.059257 0.008235
vt 0.078642 0.001682
vt 0.040674 0.015768
vt 0.021153 0.020101
vt 0.156057 0.025253
vt 0.137645 0.013644
vt 0.118707 0.004267
vt 0.098796 0.000000
vt 0.052898 0.650249
vt 0.069348 0.649617
vt 0.036467 0.650903
vt 0.020538 0.651110
vt 0.135952 0.644476
vt 0.119015 0.644314
vt 0.101692 0.646661
vt 0.085283 0.648393
vt 0.084933 0.356502
vt 0.069288 0.355341
vt 0.101068 0.358098
vt 0.118324 0.360213
vt 0.004809 0.353259
vt 0.020908 0.353823
vt 0.036545 0.354058
vt 0.052905 0.354717
vt 0.068285 0.378958
vt 0.068087 0.624936
vt 0.051217 0.623144
vt 0.051511 0.380775
vt 0.085201 0.374170
vt 0.085419 0.631312
vt 0.034502 0.624662
vt 0.034621 0.379271
vt 0.017256 0.630721
vt 0.017746 0.374832
vt 0.000025 0.637243
vt 0.135453 0.363476
vt 0.119161 0.643811
vt 0.102530 0.638503
vt 0.102082 0.365622
vt 0.004163 0.651588
vt 0.136116 0.640814
vt 0.000833 0.367003
vt 0.135265 0.360382
vt 0.146577 0.046229
vt 0.003796 0.035793
vt 0.000000 0.021018
vt 0.152609 0.977006
vt 0.004600 0.969617
vt 0.146824 0.960534
vn 0.628056 0.039286 -0.777176
vn 0.987338 0.020023 -0.157361
vn 0.986073 -0.153475 -0.064071
vn 0.665659 -0.101831 -0.739276
vn 0.785263 0.068963 0.615310
vn 0.717272 -0.171055 0.675471
vn -0.001888 0.149147 0.988813
vn 0.003171 -0.165648 0.986180
vn -0.789029 0.056319 0.611769
vn -0.713044 -0.184276 0.676470
vn -0.986576 0.003647 -0.163261
vn -0.983024 -0.171329 -0.065660
vn -0.623832 0.029135 -0.781015
vn -0.661214 -0.113222 -0.741604
vn 0.002758 0.049981 -0.998746
vn 0.002838 -0.079848 -0.996803
vn 0.999726 -0.023389 0.000000
vn 0.711058 -0.022559 -0.702772
vn 0.711058 -0.022559 0.702772
vn 0.005194 -0.020718 0.999772
vn -0.705984 -0.019141 0.707969
vn -0.999828 -0.018575 0.000000
vn -0.705984 -0.019141 -0.707969
vn 0.005194 -0.020718 -0.999772
vn -0.718450 -0.031602 -0.694860
vn -0.999490 -0.031922 0.000000
vn -0.982392 -0.177258 -0.059045
vn -0.673229 -0.119131 -0.729774
vn -0.718450 -0.031602 0.694861
vn -0.717507 -0.208712 0.664547
vn -0.005147 -0.030169 0.999532
vn -0.000280 -0.209436 0.977822
vn 0.713554 -0.027823 0.700048
vn 0.717025 -0.210457 0.664517
vn 0.999645 -0.026637 -0.000000
vn 0.981949 -0.179641 -0.059200
vn 0.713555 -0.027823 -0.700047
vn 0.672787 -0.120753 -0.729916
vn -0.005147 -0.030169 -0.999532
vn -0.000219 -0.091650 -0.995791
vn -0.989230 0.013495 -0.145743
vn -0.639033 0.040539 -0.768110
vn -0.787312 0.042049 0.615119
vn 0.000570 0.100039 0.994983
vn 0.787899 0.040089 0.614498
vn 0.989162 0.011121 -0.146406
vn 0.638654 0.039026 -0.768504
vn -0.000230 0.056763 -0.998388
vn 0.993936 -0.109960 -0.000001
vn 0.748874 -0.082534 -0.657554
vn 0.748874 -0.082530 0.657554
vn 0.100976 -0.017723 0.994731
vn -0.652320 0.016798 0.757757
vn -0.999909 0.013505 0.000002
vn -0.652322 0.016793 -0.757756
vn 0.100978 -0.017725 -0.994731
vn -0.104298 -0.018182 -0.994380
vn -0.755877 -0.082843 -0.649451
vn 0.659582 0.017370 -0.751432
vn 0.789420 0.613854 0.000047
vn 0.659579 0.017376 0.751434
vn -0.104295 -0.018179 0.994380
vn -0.755877 -0.082840 0.649452
vn -0.994008 -0.109304 -0.000001
vn -0.059626 -0.693979 -0.717522
vn 0.066408 -0.687688 -0.722963
vn 0.087639 -0.996152 0.000082
vn -0.076475 -0.997072 0.000082
vn -0.014495 -0.021343 -0.999667
vn 0.015333 -0.020091 -0.999681
vn 0.066418 -0.687687 0.722963
vn -0.059637 -0.693979 0.717521
vn 0.015332 -0.020144 0.999680
vn -0.014493 -0.021395 0.999666
vn -0.018637 0.655841 0.754669
vn 0.008664 0.660997 0.750339
vn -0.018803 0.999823 0.000078
vn -0.018637 0.655838 -0.754671
vn 0.008664 0.660995 -0.750340
s 1
g seelingPipe_01_low
usemtl initialShadingGroup
f 17/1/1 18/2/2 19/3/3 20/4/4
f 18/2/2 21/5/5 22/6/6 19/3/3
f 21/5/5 23/7/7 24/8/8 22/6/6
f 23/7/7 25/9/9 26/88/10 24/8/8
f 25/87/9 27/11/11 28/12/12 26/10/10
f 27/11/11 29/13/13 30/14/14 28/12/12
f 29/13/13 31/15/15 32/16/16 30/14/14
f 31/15/15 17/1/1 20/4/4 32/16/16
f 10/17/17 9/18/18 20/4/4 19/3/3
f 11/19/19 10/17/17 19/3/3 22/6/6
f 12/20/20 11/19/19 22/6/6 24/8/8
f 13/21/21 12/20/20 24/8/8 26/88/10
f 14/22/22 13/89/21 26/10/10 28/12/12
f 15/23/23 14/22/22 28/12/12 30/14/14
f 16/24/24 15/23/23 30/14/14 32/16/16
f 9/18/18 16/24/24 32/16/16 20/4/4
f 1/25/25 2/26/26 34/27/27 33/28/28
f 2/26/26 3/29/29 35/30/30 34/27/27
f 3/29/29 4/31/31 36/32/32 35/30/30
f 4/31/31 5/33/33 37/85/34 36/32/32
f 5/84/33 6/35/35 38/36/36 37/34/34
f 6/35/35 7/37/37 39/38/38 38/36/36
f 7/37/37 8/39/39 40/40/40 39/38/38
f 8/39/39 1/25/25 33/28/28 40/40/40
f 33/28/28 34/27/27 42/41/41 41/42/42
f 34/27/27 35/30/30 43/43/43 42/41/41
f 35/30/30 36/32/32 44/44/44 43/43/43
f 36/32/32 37/85/34 45/86/45 44/44/44
f 37/34/34 38/36/36 46/46/46 45/45/45
f 38/36/36 39/38/38 47/47/47 46/46/46
f 39/38/38 40/40/40 48/48/48 47/47/47
f 40/40/40 33/28/28 41/42/42 48/48/48
f 9/18/18 10/17/17 50/49/49 49/50/50
f 10/17/17 11/19/19 51/51/51 50/49/49
f 11/19/19 12/20/20 52/52/52 51/51/51
f 12/20/20 13/21/21 53/80/53 52/52/52
f 13/89/21 14/22/22 54/54/54 53/53/53
f 14/22/22 15/23/23 55/55/55 54/54/54
f 15/23/23 16/24/24 56/56/56 55/55/55
f 16/24/24 9/18/18 49/50/50 56/56/56
f 58/57/57 57/58/58 1/25/25 8/39/39
f 59/59/59 58/57/57 8/39/39 7/37/37
f 60/60/60 59/59/59 7/37/37 6/35/35
f 61/83/61 60/60/60 6/35/35 5/84/33
f 62/62/62 61/61/61 5/33/33 4/31/31
f 63/63/63 62/62/62 4/31/31 3/29/29
f 64/64/64 63/63/63 3/29/29 2/26/26
f 57/58/58 64/64/64 2/26/26 1/25/25
f 65/65/65 66/66/66 68/67/67 67/68/68
f 66/66/66 65/65/65 78/69/69 79/70/70
f 67/68/68 68/67/67 70/71/71 69/72/72
f 69/72/72 70/71/71 72/73/73 71/74/74
f 71/74/74 72/73/73 74/75/75 73/82/76
f 73/76/76 74/81/75 75/77/77 60/60/60
f 60/60/60 75/77/77 77/78/78 76/79/79
f 76/79/79 77/78/78 79/70/70 78/69/69
f 65/65/65 67/68/68 64/64/64 57/58/58
f 67/68/68 69/72/72 63/63/63 64/64/64
f 69/72/72 71/74/74 62/62/62 63/63/63
f 71/74/74 73/82/76 61/61/61 62/62/62
f 73/76/76 60/60/60 61/83/61
f 60/60/60 76/79/79 59/59/59
f 76/79/79 78/69/69 58/57/57 59/59/59
f 78/69/69 65/65/65 57/58/58 58/57/57
f 49/50/50 50/49/49 68/67/67 66/66/66
f 50/49/49 51/51/51 70/71/71 68/67/67
f 51/51/51 52/52/52 72/73/73 70/71/71
f 52/52/52 53/80/53 74/75/75 72/73/73
f 53/53/53 54/54/54 75/77/77 74/81/75
f 54/54/54 55/55/55 77/78/78 75/77/77
f 55/55/55 56/56/56 79/70/70 77/78/78
f 56/56/56 49/50/50 66/66/66 79/70/70
