# This file uses centimeters as units for non-parametric coordinates.

mtllib smallHorizonalPipe_01_low.mtl
g default
v 28.948061 -4.830750 -4.138710
v 28.948061 -6.770203 0.543549
v 28.948061 -4.830750 5.225807
v 28.948061 -0.148499 7.165260
v 28.948061 4.533783 5.225807
v 28.948061 6.473236 0.543549
v 28.948061 4.533783 -4.138710
v 28.948061 -0.148499 -6.078165
v -22.884237 -4.716705 -4.138710
v -22.884253 -6.608917 0.543549
v -22.884237 -4.716705 5.225807
v -22.884230 -0.148499 7.165260
v -22.884230 4.419739 5.225807
v -22.884214 6.311951 0.543549
v -22.884230 4.419739 -4.138710
v -22.884230 -0.148499 -6.078165
v 28.948061 -0.148499 0.543549
v 24.357363 -4.827469 -4.138710
v 24.345102 -6.765564 0.543549
v 24.357363 -4.827469 5.225807
v 24.386904 -0.148499 7.165260
v 24.416445 4.530502 5.225807
v 24.428698 6.468582 0.543549
v 24.416445 4.530502 -4.138710
v 24.386904 -0.148499 -6.078165
v 31.084024 -5.900665 -5.208614
v 31.084024 -8.283279 0.543549
v 25.429277 -8.277588 0.543549
v 25.444323 -5.896637 -5.208614
v 31.084024 -5.900665 6.295712
v 25.444323 -5.896637 6.295712
v 31.084024 -0.148499 8.678335
v 25.480623 -0.148499 8.678335
v 31.084024 5.603683 6.295712
v 25.516893 5.599655 6.295712
v 31.084024 7.986298 0.543549
v 25.531946 7.980591 0.543549
v 31.084024 5.603683 -5.208615
v 25.516893 5.599655 -5.208615
v 31.084024 -0.148499 -7.591240
v 25.480623 -0.148499 -7.591240
v -24.245840 -6.170776 -5.629076
v -24.245855 -8.665283 0.543549
v -24.245840 -6.170776 6.716173
v -24.245825 -0.148499 9.272955
v -24.245825 5.873810 6.716173
v -24.245810 8.368317 0.543549
v -24.245825 5.873810 -5.629076
v -24.245825 -0.148499 -8.185861
v -31.001646 -6.170776 -5.629076
v -31.001661 -8.665283 0.543549
v -31.001646 -6.170776 6.716173
v -31.001631 -0.148499 9.272955
v -31.001631 5.873810 6.716173
v -31.001616 8.368317 0.543549
v -31.001631 5.873810 -5.629076
v -31.001631 -0.148499 -8.185861
vt 0.117484 0.217517
vt 0.121667 0.137584
vt 0.846209 0.131248
vt 0.851615 0.212429
vt 0.132353 0.060000
vt 0.840154 0.693639
vt 0.123308 0.620189
vt 0.849703 0.617009
vt 0.118020 0.540487
vt 0.855781 0.537269
vt 0.116164 0.459744
vt 0.859212 0.455657
vt 0.114612 0.379010
vt 0.857361 0.373465
vt 0.115239 0.298192
vt 0.853929 0.292798
vt 0.265474 0.775271
vt 0.293852 0.843955
vt 0.188266 0.846751
vt 0.139570 0.748896
vt 0.090451 0.808117
vt 0.089097 0.882791
vt 0.136176 0.939558
vt 0.208551 0.951690
vt 0.271181 0.913721
vt 0.002361 0.206010
vt 0.296095 0.749205
vt 0.095674 0.131241
vt 0.089794 0.213974
vt 0.112389 0.717181
vt 0.113061 0.715866
vt 0.051301 0.796215
vt 0.096617 0.627548
vt 0.051311 0.898161
vt 0.090170 0.544032
vt 0.117244 0.975681
vt 0.087232 0.461073
vt 0.217492 0.991482
vt 0.086742 0.378467
vt 0.303683 0.938313
vt 0.087463 0.296288
vt 0.880050 0.120765
vt 0.888407 0.206977
vt 0.868710 0.717355
vt 0.887072 0.627159
vt 0.892996 0.541719
vt 0.894231 0.457020
vt 0.894501 0.372835
vt 0.892985 0.290002
vt 0.980721 0.097486
vt 0.993015 0.192596
vt 0.971569 0.744013
vt 0.989770 0.645747
vt 0.997764 0.551544
vt 0.999943 0.459643
vt 1.000000 0.370122
vt 0.998329 0.282384
vt 0.860906 0.026038
vt 0.960782 0.000000
vt 0.832686 0.052003
vt 0.000117 0.293323
vt 0.334449 0.842076
vt 0.000000 0.379011
vt 0.001203 0.464505
vt 0.004042 0.551771
vt 0.011235 0.642450
vt 0.212213 0.698894
vt 0.025957 0.023097
vt 0.027817 0.736654
vt 0.109774 0.042447
vt 0.134647 0.699524
vt 0.009027 0.115337
vt 0.198346 0.737198
vn -0.043333 -0.710110 -0.702756
vn -0.044209 -0.999022 -0.000000
vn 0.055476 -0.998460 0.000000
vn 0.057220 -0.710316 -0.701553
vn -0.043333 -0.710110 0.702756
vn 0.057220 -0.710316 0.701553
vn -0.042464 0.001877 0.999096
vn 0.058979 0.000126 0.998259
vn -0.043380 0.711953 0.700886
vn 0.057162 0.710443 0.701429
vn -0.044266 0.999020 0.000000
vn 0.055396 0.998464 0.000000
vn -0.043380 0.711953 -0.700886
vn 0.057162 0.710444 -0.701429
vn -0.042464 0.001877 -0.999096
vn 0.058979 0.000126 -0.998259
vn 0.851224 0.524803 0.000000
vn 0.851224 0.371092 0.371092
vn 1.000000 0.000000 0.000000
vn 0.851224 0.371092 -0.371092
vn 0.851224 0.000000 -0.524803
vn 0.851224 -0.371092 -0.371092
vn 0.851224 -0.524803 -0.000000
vn 0.851224 -0.371092 0.371092
vn 0.851224 0.000000 0.524803
vn -0.000506 -0.707984 -0.706228
vn -0.000861 -1.000000 0.000000
vn -0.168959 -0.985623 -0.000000
vn -0.168876 -0.697638 -0.696263
vn -0.000506 -0.707984 0.706229
vn -0.168876 -0.697637 0.696264
vn -0.000149 -0.001342 0.999999
vn -0.169067 -0.001275 0.985604
vn -0.000512 0.706644 0.707569
vn -0.169821 0.696248 0.697424
vn -0.000876 1.000000 0.000000
vn -0.170299 0.985393 -0.000000
vn -0.000512 0.706644 -0.707569
vn -0.169821 0.696248 -0.697424
vn -0.000149 -0.001342 -0.999999
vn -0.169067 -0.001275 -0.985604
vn 0.578045 0.816005 0.000000
vn 0.578044 0.577004 0.577002
vn 0.578044 0.577004 -0.577002
vn 0.578043 0.000000 -0.816006
vn 0.578042 -0.577003 -0.577005
vn 0.578041 -0.816008 -0.000000
vn 0.578042 -0.577003 0.577005
vn 0.578043 -0.000000 0.816006
vn 0.183869 -0.982951 0.000000
vn 0.185015 -0.702930 -0.686774
vn 0.185015 -0.702930 0.686775
vn 0.186169 -0.000000 0.982518
vn 0.185015 0.702929 0.686776
vn 0.183870 0.982951 0.000000
vn 0.185015 0.702929 -0.686776
vn 0.186169 0.000000 -0.982518
vn 0.000000 -1.000000 0.000000
vn 0.000000 -0.715771 -0.698336
vn 0.000000 -0.715770 0.698336
vn 0.000000 -0.000000 1.000000
vn 0.000000 0.715769 0.698338
vn 0.000000 1.000000 0.000000
vn 0.000000 0.715769 -0.698337
vn 0.000000 -0.000000 -1.000000
s 1
g smallHorizonalPipe_01_low
usemtl initialShadingGroup
f 18/1/1 19/2/2 10/3/3 9/4/4
f 19/2/2 20/5/5 11/60/6 10/3/3
f 20/71/5 21/7/7 12/8/8 11/6/6
f 21/7/7 22/9/9 13/10/10 12/8/8
f 22/9/9 23/11/11 14/12/12 13/10/10
f 23/11/11 24/13/13 15/14/14 14/12/12
f 24/13/13 25/15/15 16/16/16 15/14/14
f 25/15/15 18/1/1 9/4/4 16/16/16
s 2
f 2/17/17 1/18/18 17/19/19
f 3/73/20 2/17/17 17/19/19
f 4/21/21 3/20/20 17/19/19
f 5/22/22 4/21/21 17/19/19
f 6/23/23 5/22/22 17/19/19
f 7/24/24 6/23/23 17/19/19
f 8/25/25 7/24/24 17/19/19
f 1/18/18 8/25/25 17/19/19
s 1
f 26/26/26 27/72/27 28/28/28 29/29/29
f 27/72/27 30/68/30 31/70/31 28/28/28
f 30/69/30 32/66/32 33/33/33 31/31/31
f 32/66/32 34/65/34 35/35/35 33/33/33
f 34/65/34 36/64/36 37/37/37 35/35/35
f 36/64/36 38/63/38 39/39/39 37/37/37
f 38/63/38 40/61/40 41/41/41 39/39/39
f 40/61/40 26/26/26 29/29/29 41/41/41
s 2
f 1/18/18 2/17/17 27/27/42 26/62/43
s 1
f 19/2/2 18/1/1 29/29/29 28/28/28
s 2
f 2/17/17 3/73/20 30/67/44 27/27/42
s 1
f 20/5/5 19/2/2 28/28/28 31/70/31
s 2
f 3/20/20 4/21/21 32/32/45 30/30/44
s 1
f 21/7/7 20/71/5 31/31/31 33/33/33
s 2
f 4/21/21 5/22/22 34/34/46 32/32/45
s 1
f 22/9/9 21/7/7 33/33/33 35/35/35
s 2
f 5/22/22 6/23/23 36/36/47 34/34/46
s 1
f 23/11/11 22/9/9 35/35/35 37/37/37
s 2
f 6/23/23 7/24/24 38/38/48 36/36/47
s 1
f 24/13/13 23/11/11 37/37/37 39/39/39
s 2
f 7/24/24 8/25/25 40/40/49 38/38/48
s 1
f 25/15/15 24/13/13 39/39/39 41/41/41
s 2
f 8/25/25 1/18/18 26/62/43 40/40/49
s 1
f 18/1/1 25/15/15 41/41/41 29/29/29
f 9/4/4 10/3/3 43/42/50 42/43/51
f 10/3/3 11/60/6 44/58/52 43/42/50
f 11/6/6 12/8/8 45/45/53 44/44/52
f 12/8/8 13/10/10 46/46/54 45/45/53
f 13/10/10 14/12/12 47/47/55 46/46/54
f 14/12/12 15/14/14 48/48/56 47/47/55
f 15/14/14 16/16/16 49/49/57 48/48/56
f 16/16/16 9/4/4 42/43/51 49/49/57
f 42/43/51 43/42/50 51/50/58 50/51/59
f 43/42/50 44/58/52 52/59/60 51/50/58
f 44/44/52 45/45/53 53/53/61 52/52/60
f 45/45/53 46/46/54 54/54/62 53/53/61
f 46/46/54 47/47/55 55/55/63 54/54/62
f 47/47/55 48/48/56 56/56/64 55/55/63
f 48/48/56 49/49/57 57/57/65 56/56/64
f 49/49/57 42/43/51 50/51/59 57/57/65
