# This file uses centimeters as units for non-parametric coordinates.

mtllib verticalPipe_01_low.mtl
g default
v 4.682258 35.710838 26.835033
v 0.000000 35.710838 24.895584
v -4.682258 35.710838 26.835033
v -6.621713 35.710838 31.517292
v -4.682258 35.710838 36.199566
v 0.000000 35.710838 38.139019
v 4.682259 35.710838 36.199566
v 6.621714 35.710838 31.517292
v 4.682258 195.299713 26.949080
v 0.000000 195.725159 25.056864
v -4.682258 195.299713 26.949080
v -6.621713 194.272583 31.517292
v -4.682258 193.245483 36.085518
v 0.000000 192.820038 37.977730
v 4.682259 193.245483 36.085518
v 6.621714 194.272583 31.517292
v 0.000000 35.710838 31.517292
v 4.682259 204.362961 28.558115
v 4.682259 213.740387 34.957165
v 4.682259 217.483795 44.050541
v 0.000000 219.088318 43.852585
v 0.000000 214.809875 33.925884
v 0.000000 205.143005 27.204939
v -4.682258 217.483795 44.050541
v -4.682258 213.740387 34.957165
v -4.682258 204.362961 28.558115
v -6.621712 213.374451 44.533108
v -6.621712 211.039520 37.544804
v -6.621712 202.351227 32.011505
v -4.682258 208.615692 45.094307
v -4.682258 208.007813 40.447357
v -4.682258 200.037842 35.988823
v 0.000000 206.270416 45.356209
v 0.000000 206.522888 41.854847
v 0.000000 198.865753 37.976532
v 4.682259 208.615509 45.094467
v 4.682259 208.007751 40.447407
v 4.682259 200.037598 35.988880
v 6.621714 213.374451 44.533108
v 6.621714 211.039520 37.544804
v 6.621714 202.351227 32.011505
v 4.682258 40.301544 26.838314
v 0.000000 40.313797 24.900223
v -4.682258 40.301544 26.838314
v -6.621713 40.271996 31.517292
v -4.682258 40.242470 36.196285
v 0.000000 40.230217 38.134369
v 4.682259 40.242470 36.196285
v 6.621714 40.271996 31.517292
v 5.752163 33.574875 25.765127
v -0.000000 33.574875 23.382509
v -0.000000 39.229622 23.388206
v 5.752163 39.214584 25.769157
v -5.752163 33.574875 25.765127
v -5.752163 39.214584 25.769157
v -8.134788 33.574875 31.517288
v -8.134788 39.178276 31.517288
v -5.752163 33.574875 37.269466
v -5.752163 39.142006 37.265438
v -0.000000 33.574875 39.652088
v -0.000000 39.126961 39.646381
v 5.752164 33.574875 37.269466
v 5.752164 39.142006 37.265438
v 8.134789 33.574875 31.517288
v 8.134789 39.178276 31.517288
v -0.000000 221.940857 47.466846
v 6.516120 219.691635 47.466846
v -0.000000 221.418823 51.057350
v 6.516119 218.842804 51.057343
v -6.516120 219.691635 47.466846
v -6.516120 218.842804 51.057343
v -9.215184 213.934448 47.466850
v -9.215185 212.623672 51.057327
v -6.516120 207.267181 47.466850
v -6.516120 206.404510 51.057304
v -0.000000 203.983322 47.466850
v -0.000000 203.828491 51.057297
v 6.516121 207.266891 47.466850
v 6.516120 206.404510 51.057304
v 9.215186 213.934448 47.466850
v 9.215186 212.623672 51.057327
vt 0.846124 0.132683
vt 0.866115 0.154795
vt 0.212774 0.782061
vt 0.192756 0.759722
vt 0.887447 0.175611
vt 0.234281 0.802970
vt 0.910770 0.194062
vt 0.256990 0.821966
vt 0.935325 0.210851
vt 0.280119 0.840520
vt 0.959262 0.228578
vt 0.301725 0.861269
vt 0.812787 0.083432
vt 0.157098 0.712392
vt 0.828575 0.108661
vt 0.174698 0.736258
vt 0.899360 0.122940
vt 0.888225 0.108417
vt 0.926810 0.096206
vt 0.913452 0.134573
vt 0.930429 0.143289
vt 0.951159 0.147503
vt 0.881659 0.046581
vt 0.876503 0.070373
vt 0.880076 0.091134
vt 0.078055 0.865425
vt 0.118236 0.833493
vt 0.137775 0.854052
vt 0.097390 0.892819
vt 0.160619 0.793483
vt 0.179170 0.814316
vt 0.056175 0.879212
vt 0.079271 0.910212
vt 0.063461 0.925389
vt 0.036665 0.886836
vt 0.109303 0.934555
vt 0.100889 0.953737
vt 0.142245 0.947936
vt 0.141937 0.969991
vt 0.182347 0.955850
vt 0.182679 0.977821
vt 0.036485 0.762471
vt 0.015263 0.762404
vt 0.037879 0.805358
vt 0.015940 0.804131
vt 0.044150 0.845751
vt 0.022101 0.845158
vt 0.199230 0.833700
vt 0.218440 0.849405
vt 0.241666 0.865806
vt 0.266074 0.885403
vt 0.130269 0.749772
vt 0.145710 0.773649
vt 0.157520 0.874413
vt 0.123972 0.913256
vt 0.175286 0.891212
vt 0.152161 0.926712
vt 0.196865 0.908507
vt 0.186613 0.936970
vt 0.072363 0.765618
vt 0.053796 0.768440
vt 0.085776 0.792789
vt 0.056918 0.801868
vt 0.102176 0.815056
vt 0.065762 0.836710
vt 0.875857 0.114049
vt 0.889712 0.132165
vt 0.870995 0.150124
vt 0.852496 0.128557
vt 0.907361 0.146634
vt 0.891863 0.169411
vt 0.927790 0.157748
vt 0.915185 0.186069
vt 0.952195 0.164549
vt 0.941008 0.199973
vt 0.859106 0.039174
vt 0.809975 0.047397
vt 0.859382 0.068718
vt 0.823804 0.078251
vt 0.865408 0.093310
vt 0.836701 0.104632
vt 0.225143 0.958996
vt 0.224342 0.980203
vt 0.219886 0.941456
vt 0.981077 0.166706
vt 0.970999 0.215292
vt 0.796144 0.058712
vt 0.975982 0.142990
vt 0.137243 0.689956
vt 0.111683 0.724586
vt 0.223465 0.923019
vn 0.702682 0.013510 -0.711376
vn -0.000000 0.013744 -0.999906
vn -0.000000 0.012829 -0.999918
vn 0.672819 0.007863 -0.739766
vn -0.702682 0.013510 -0.711375
vn -0.672819 0.007863 -0.739766
vn -0.999911 0.013326 0.000272
vn -0.998608 0.001098 -0.052744
vn -0.702368 0.013693 0.711682
vn -0.726991 0.000405 0.686647
vn 0.000000 0.014003 0.999902
vn -0.000000 0.001120 0.999999
vn 0.702368 0.013693 0.711682
vn 0.726991 0.000405 0.686647
vn 0.999911 0.013326 0.000272
vn 0.998608 0.001098 -0.052744
vn 0.000000 -0.851224 0.524803
vn -0.371092 -0.851224 0.371092
vn 0.000000 -1.000000 -0.000000
vn 0.371092 -0.851224 0.371092
vn 0.524803 -0.851224 -0.000000
vn 0.371092 -0.851224 -0.371092
vn 0.000000 -0.851224 -0.524803
vn -0.371092 -0.851224 -0.371092
vn -0.524803 -0.851224 -0.000000
vn 0.538296 0.705523 -0.460951
vn 0.583366 0.619618 -0.525126
vn 0.000000 0.761880 -0.647718
vn 0.000000 0.874238 -0.485497
vn 0.614176 0.316891 -0.722750
vn 0.000000 0.414216 -0.910179
vn 0.627681 0.740038 -0.241580
vn 0.000000 0.972408 -0.233288
vn 0.000000 0.982261 0.187518
vn 0.692337 0.703616 0.159983
vn -0.627681 0.740038 -0.241580
vn -0.692337 0.703616 0.159984
vn -0.952446 0.068197 -0.296979
vn -0.995809 -0.087441 -0.026798
vn -0.691872 -0.623116 -0.364746
vn -0.678892 -0.722317 -0.131769
vn -0.000013 -0.929217 -0.369534
vn -0.000011 -0.990113 -0.140275
vn 0.691869 -0.623123 -0.364739
vn 0.678903 -0.722312 -0.131740
vn 0.952446 0.068196 -0.296978
vn 0.995810 -0.087441 -0.026785
vn -0.614176 0.316891 -0.722751
vn -0.996086 0.030584 -0.082928
vn -0.743934 -0.194013 0.639470
vn -0.000009 -0.259628 0.965709
vn 0.743933 -0.194010 0.639472
vn 0.996086 0.030582 -0.082927
vn -0.583366 0.619619 -0.525125
vn -0.538296 0.705522 -0.460951
vn -0.990803 0.110460 -0.078153
vn -0.930306 0.071910 -0.359667
vn -0.789574 -0.446982 0.420453
vn -0.696620 -0.639309 -0.325583
vn -0.000014 -0.733265 0.679943
vn -0.000016 -0.913941 -0.405847
vn 0.789579 -0.446978 0.420448
vn 0.696613 -0.639303 -0.325609
vn 0.990803 0.110458 -0.078152
vn 0.930306 0.071908 -0.359668
vn 0.676861 -0.283686 -0.679250
vn 0.000000 -0.282381 -0.959302
vn -0.000000 0.168958 -0.985623
vn 0.696263 0.168876 -0.697638
vn -0.676861 -0.283686 -0.679250
vn -0.696263 0.168876 -0.697638
vn -0.958167 -0.286205 -0.001828
vn -0.985604 0.169067 -0.001276
vn -0.677817 -0.287813 0.676556
vn -0.697424 0.169821 0.696248
vn 0.000000 -0.288208 0.957568
vn -0.000000 0.170299 0.985392
vn 0.677817 -0.287813 0.676556
vn 0.697424 0.169821 0.696248
vn 0.958167 -0.286205 -0.001828
vn 0.985604 0.169067 -0.001276
s 1
g verticalPipe_01_low
usemtl initialShadingGroup
f 42/1/1 43/2/2 10/3/3 9/4/4
f 43/2/2 44/5/5 11/6/6 10/3/3
f 44/5/5 45/7/7 12/8/8 11/6/6
f 45/7/7 46/9/9 13/10/10 12/8/8
f 46/9/9 47/11/11 14/12/12 13/10/10
f 47/87/11 48/13/13 15/14/14 14/89/12
f 48/13/13 49/15/15 16/16/16 15/14/14
f 49/15/15 42/1/1 9/4/4 16/16/16
f 2/17/17 1/18/18 17/19/19
f 3/20/20 2/17/17 17/19/19
f 4/21/21 3/20/20 17/19/19
f 5/22/22 4/21/21 17/19/19
f 6/88/23 5/22/22 17/19/19
f 7/24/24 6/23/23 17/19/19
f 8/25/25 7/24/24 17/19/19
f 1/18/18 8/25/25 17/19/19
f 20/26/26 19/27/27 22/28/28 21/29/29
f 19/27/27 18/30/30 23/31/31 22/28/28
f 67/32/32 66/33/33 68/34/34 69/35/35
f 66/33/33 70/36/36 71/37/37 68/34/34
f 70/36/36 72/38/38 73/39/39 71/37/37
f 72/38/38 74/40/40 75/41/41 73/39/39
f 74/40/40 76/82/42 77/83/43 75/41/41
f 76/42/42 78/44/44 79/45/45 77/43/43
f 78/44/44 80/46/46 81/47/47 79/45/45
f 80/46/46 67/32/32 69/35/35 81/47/47
f 9/4/4 10/3/3 23/31/31 18/30/30
f 10/3/3 11/6/6 26/48/48 23/31/31
f 11/6/6 12/8/8 29/49/49 26/48/48
f 12/8/8 13/10/10 32/50/50 29/49/49
f 13/10/10 14/12/12 35/51/51 32/50/50
f 14/89/12 15/14/14 38/52/52 35/90/51
f 15/14/14 16/16/16 41/53/53 38/52/52
f 16/16/16 9/4/4 18/30/30 41/53/53
f 21/29/29 22/28/28 25/54/54 24/55/55
f 22/28/28 23/31/31 26/48/48 25/54/54
f 24/55/55 25/54/54 28/56/56 27/57/57
f 25/54/54 26/48/48 29/49/49 28/56/56
f 27/57/57 28/56/56 31/58/58 30/59/59
f 28/56/56 29/49/49 32/50/50 31/58/58
f 30/59/59 31/58/58 34/91/60 33/84/61
f 31/58/58 32/50/50 35/51/51 34/91/60
f 33/61/61 34/60/60 37/62/62 36/63/63
f 34/60/60 35/90/51 38/52/52 37/62/62
f 36/63/63 37/62/62 40/64/64 39/65/65
f 37/62/62 38/52/52 41/53/53 40/64/64
f 18/30/30 19/27/27 40/64/64 41/53/53
f 19/27/27 20/26/26 39/65/65 40/64/64
f 50/66/66 51/67/67 52/68/68 53/69/69
f 51/67/67 54/70/70 55/71/71 52/68/68
f 54/70/70 56/72/72 57/73/73 55/71/71
f 56/72/72 58/74/74 59/75/75 57/73/73
f 58/74/74 60/85/76 61/86/77 59/75/75
f 60/76/76 62/78/78 63/79/79 61/77/77
f 62/78/78 64/80/80 65/81/81 63/79/79
f 64/80/80 50/66/66 53/69/69 65/81/81
f 1/18/18 2/17/17 51/67/67 50/66/66
f 43/2/2 42/1/1 53/69/69 52/68/68
f 2/17/17 3/20/20 54/70/70 51/67/67
f 44/5/5 43/2/2 52/68/68 55/71/71
f 3/20/20 4/21/21 56/72/72 54/70/70
f 45/7/7 44/5/5 55/71/71 57/73/73
f 4/21/21 5/22/22 58/74/74 56/72/72
f 46/9/9 45/7/7 57/73/73 59/75/75
f 5/22/22 6/88/23 60/85/76 58/74/74
f 47/11/11 46/9/9 59/75/75 61/86/77
f 6/23/23 7/24/24 62/78/78 60/76/76
f 48/13/13 47/87/11 61/77/77 63/79/79
f 7/24/24 8/25/25 64/80/80 62/78/78
f 49/15/15 48/13/13 63/79/79 65/81/81
f 8/25/25 1/18/18 50/66/66 64/80/80
f 42/1/1 49/15/15 65/81/81 53/69/69
f 20/26/26 21/29/29 66/33/33 67/32/32
f 21/29/29 24/55/55 70/36/36 66/33/33
f 24/55/55 27/57/57 72/38/38 70/36/36
f 27/57/57 30/59/59 74/40/40 72/38/38
f 30/59/59 33/84/61 76/82/42 74/40/40
f 33/61/61 36/63/63 78/44/44 76/42/42
f 36/63/63 39/65/65 80/46/46 78/44/44
f 39/65/65 20/26/26 67/32/32 80/46/46
