# This file uses centimeters as units for non-parametric coordinates.

mtllib floorWithDrain_01_low.mtl
g default
v -100.498222 12.433569 49.018097
v 100.498222 12.433569 49.018097
v -100.498222 33.039566 49.018097
v 100.498222 33.039566 49.018097
v -100.498222 33.039566 -52.046501
v 100.498222 33.039566 -52.046501
v -100.498222 12.433569 -49.018097
v 100.498222 12.433569 -49.018097
v 100.498222 37.092693 -52.046501
v -100.498222 37.092693 -52.046501
v -100.498222 -0.000001 -49.018097
v 100.498222 -0.000001 -49.018097
v 100.498222 -0.000001 49.018097
v -100.498222 -0.000001 49.018097
v -100.498222 37.092693 49.018097
v 100.498222 37.092693 49.018097
v -100.498222 34.309620 -54.862064
v 100.498222 34.309620 -54.862064
v -100.498222 38.362751 -54.862064
v 100.498222 38.362751 -54.862064
v 1.212204 33.039566 -52.046501
v 1.212204 34.309620 -54.862064
v 1.212204 38.362751 -54.862064
v 1.212204 37.092693 -52.046501
v 30.801752 33.039566 -52.046501
v 30.801752 34.309620 -54.862068
v 30.801752 38.362751 -54.862068
v 30.801752 37.092693 -52.046501
v -30.322296 33.039566 -52.046501
v -30.322290 34.309620 -54.862064
v -30.322290 38.362751 -54.862064
v -30.322290 37.092693 -52.046501
v -100.498222 25.636539 49.018097
v 100.498222 25.636539 49.018097
v 100.498222 25.636539 -50.548450
v 23.350988 24.442402 -50.279274
v -22.407701 24.138384 -50.329372
v -100.498222 25.636539 -50.548450
v -32.026749 -0.000001 -35.034267
v -32.026749 12.443204 -34.604015
v 1.212204 12.510821 -35.034267
v 1.212204 -0.000001 -35.034267
v 32.273819 12.443204 -34.604015
v 32.273815 -0.000001 -35.034267
v 40.021038 -0.000001 -35.034267
v 1.212204 25.636539 -36.564621
v -40.903767 -0.000001 -35.034267
v -17.730688 21.331940 -35.444656
v 16.120289 22.310209 -35.621265
v 34.711823 15.819683 -49.730492
v 33.030121 14.124539 -48.948929
v 31.889355 12.887683 -47.094486
v 31.591604 12.436640 -44.658154
v 40.021038 -0.000000 -44.242504
v 40.803062 -0.000001 -46.630302
v 42.939598 -0.000001 -48.378288
v 45.858154 -0.000001 -49.018097
v 18.080395 21.623184 -45.303883
v 19.115950 21.858171 -47.720776
v 21.006819 22.870840 -49.500088
v 1.212204 25.636539 -46.137421
v 1.216905 26.204960 -48.520905
v 1.230054 27.794889 -50.420238
v 1.248934 30.077911 -51.447189
v -17.681799 21.347950 -45.312447
v -18.295124 21.717934 -47.697090
v -20.012379 22.731876 -49.516029
v -31.343763 12.436632 -44.669552
v -31.617388 12.906750 -47.103615
v -32.692543 14.196571 -48.957233
v -34.286304 15.966695 -49.742741
v -46.995869 -0.000001 -49.018097
v -43.949818 -0.000001 -48.378815
v -41.719955 -0.000001 -46.632263
v -40.903767 -0.000001 -44.246429
vt 0.555340 0.519080
vt 0.038526 0.731332
vt 0.985395 0.000002
vt 0.556811 0.556036
vt 0.470028 0.361786
vt 0.719428 0.000000
vt 0.719493 0.361741
vt 0.773550 0.000018
vt 0.777967 0.276151
vt 0.746548 0.249486
vt 0.746515 0.000021
vt 0.058311 0.538869
vt 0.052304 0.576122
vt 0.000000 0.000129
vt 0.735460 0.000023
vt 0.735493 0.249488
vt 0.470030 0.372842
vt 0.720953 0.000025
vt 0.000065 0.361871
vt 0.821124 0.000000
vt 0.911640 0.000012
vt 0.867137 0.000018
vt 0.528278 0.603161
vt 0.552715 0.453172
vt 0.550244 0.391105
vt 0.821215 0.719445
vt 0.865719 0.719413
vt 0.000067 0.372926
vt 0.038502 0.583022
vt 0.866311 0.458705
vt 0.471843 0.813768
vt 0.821421 0.339743
vt 0.866202 0.339751
vt 0.735506 0.355398
vt 0.746562 0.355397
vt 0.746576 0.468268
vt 0.735520 0.468270
vt 0.720999 0.355400
vt 0.251248 0.372881
vt 0.251246 0.361826
vt 0.364118 0.361805
vt 0.151893 0.814530
vt 0.866352 0.228591
vt 0.427854 0.919911
vt 0.085597 0.788556
vt 0.236352 0.842363
vt 0.396505 0.838742
vt 0.306566 0.852669
vt 0.866339 0.490478
vt 0.138300 0.862486
vt 0.134619 0.874527
vt 0.062070 0.841407
vt 0.068890 0.831214
vt 0.130624 0.886449
vt 0.051424 0.850080
vt 0.126263 0.898190
vt 0.865565 0.195588
vt 0.808348 0.482450
vt 0.492102 0.886995
vt 0.576074 0.850753
vt 0.589753 0.858375
vt 0.488447 0.874999
vt 0.564926 0.842087
vt 0.485090 0.862907
vt 0.558063 0.831774
vt 0.757377 0.355264
vt 0.306523 0.900451
vt 0.218076 0.888178
vt 0.404840 0.887490
vt 0.202644 0.910551
vt 0.211616 0.899760
vt 0.306398 0.925053
vt 0.306477 0.912756
vt 0.417187 0.910133
vt 0.409022 0.899277
vt 0.786298 0.286352
vt 0.774110 0.339733
vt 0.789814 0.407564
vt 0.821747 0.458742
vt 0.542103 0.788584
vt 0.821788 0.228535
vt 0.866388 0.200861
vt 0.496135 0.898840
vt 0.779020 0.439936
vt 0.808879 0.235477
vt 0.192485 0.921059
vt 0.306296 0.937341
vt 0.865581 0.527912
vt 0.038502 0.857802
vt 0.773641 0.719446
vt 0.063327 0.472657
vt 0.535949 0.731236
vt 0.528290 0.665277
vt 0.865628 0.000014
vt 0.060855 0.410589
vt 0.735551 0.719451
vt 0.039307 0.603255
vt 0.053110 0.596355
vt 0.746606 0.719449
vt 0.557507 0.774562
vt 0.557511 0.794811
vt 0.543444 0.788468
vt 0.543440 0.768219
vt 0.721013 0.468271
vt 0.364120 0.372861
vt 0.720985 0.249490
vt 0.719495 0.372797
vt 0.721043 0.719453
vt 1.000000 0.719428
vt 0.038537 0.788565
vt 0.958898 0.000006
vt 0.038533 0.768316
vt 0.958995 0.719434
vt 0.985493 0.719430
vt 0.557616 0.576269
vt 0.911737 0.719440
vt 0.867234 0.719446
vt 0.038514 0.665371
vt 0.038502 0.603255
vt 0.999903 0.000000
vn 0.000000 0.000000 1.000000
vn 0.000000 0.000000 1.000000
vn 0.000000 0.000000 1.000000
vn 0.000000 0.000000 1.000000
vn 0.000000 0.999977 0.006787
vn 0.000000 1.000000 0.000000
vn 0.000000 0.999717 0.023800
vn 0.000849 -0.140723 -0.990049
vn 0.000626 -0.159871 -0.987138
vn -0.000108 -0.405151 -0.914250
vn -0.000137 -0.424235 -0.905552
vn 1.000000 0.000000 0.000000
vn 1.000000 0.000000 0.000000
vn 1.000000 0.000000 0.000000
vn 1.000000 0.000000 0.000000
vn -1.000000 -0.000000 0.000000
vn -1.000000 -0.000000 0.000000
vn -1.000000 -0.000000 0.000000
vn -1.000000 -0.000000 0.000000
vn 0.000000 0.000000 1.000000
vn 0.000000 0.000000 1.000000
vn 1.000000 0.000000 0.000000
vn 1.000000 0.000000 0.000000
vn 0.000000 -0.467552 -0.883966
vn 0.000000 -0.467552 -0.883966
vn 0.000000 0.000000 -1.000000
vn 0.000000 0.000000 -1.000000
vn -1.000000 0.000000 0.000000
vn -1.000000 0.000000 0.000000
vn 1.000000 0.000000 0.000000
vn 1.000000 0.000000 0.000000
vn 1.000000 0.000000 0.000000
vn 1.000000 0.000000 0.000000
vn 0.000000 0.000000 1.000000
vn 0.000000 0.000000 1.000000
vn 0.000000 0.000000 1.000000
vn 0.000000 0.000000 1.000000
vn -1.000000 -0.000000 0.000000
vn -1.000000 -0.000000 0.000000
vn -1.000000 0.000000 0.000000
vn -1.000000 0.000000 0.000000
vn -1.000000 0.000000 0.000000
vn -1.000000 0.000000 0.000000
vn 0.000000 0.911552 0.411186
vn 0.000000 0.911552 0.411186
vn 1.000000 0.000000 0.000000
vn 1.000000 0.000000 0.000000
vn -0.005726 0.019275 -0.999798
vn -0.006871 0.008303 -0.999942
vn -0.000366 -0.010934 -0.999940
vn 0.000000 0.017239 -0.999851
vn -0.000000 -0.467551 -0.883966
vn 0.000348 -0.500882 -0.865516
vn -0.000322 -0.398302 -0.917254
vn 0.000000 -0.467551 -0.883966
vn -0.000000 0.000000 -1.000000
vn 0.000000 0.000000 -1.000000
vn 0.000000 0.911551 0.411187
vn 0.000000 0.999618 0.027642
vn 0.000000 0.999991 0.004204
vn 0.000000 0.911551 0.411187
vn 0.000000 1.000000 0.000000
vn 0.007467 0.006517 -0.999951
vn 0.006175 0.019155 -0.999797
vn -0.000410 -0.416487 -0.909142
vn -0.000752 -0.159143 -0.987255
vn -0.001393 -0.140878 -0.990026
vn 0.000000 -0.467551 -0.883966
vn 0.000000 0.000000 -1.000000
vn 0.000000 0.999717 0.023800
vn 0.000000 0.911551 0.411187
vn -0.000000 0.034557 -0.999403
vn 0.018426 -0.087693 -0.995977
vn -0.016837 -0.082516 -0.996448
vn -0.001791 -0.115807 -0.993270
vn -0.000000 0.034557 -0.999403
vn -0.685884 -0.726476 -0.042366
vn -0.599387 -0.622348 -0.503407
vn -0.693388 -0.498825 -0.519988
vn -0.834350 -0.550504 -0.028375
vn -0.335448 -0.370473 -0.866155
vn -0.349585 -0.281846 -0.893506
vn -0.189973 -0.229908 -0.954491
vn -0.222332 -0.197247 -0.954810
vn 0.184889 -0.245297 -0.951654
vn 0.326186 -0.393158 -0.859668
vn 0.328100 -0.297337 -0.896628
vn 0.212786 -0.210295 -0.954200
vn 0.578648 -0.649638 -0.493089
vn 0.660553 -0.536847 -0.524848
vn 0.669945 -0.741810 -0.029864
vn 0.799284 -0.600196 -0.030158
vn 0.005264 -0.023131 -0.999719
vn 0.002654 -0.074305 -0.997232
vn 0.003588 -0.056018 -0.998423
vn 0.005264 -0.023131 -0.999719
vn 0.000482 -0.195788 -0.980646
vn -0.003871 -0.057399 -0.998344
vn -0.002970 -0.077936 -0.996954
vn -0.005369 -0.023105 -0.999719
vn -0.005369 -0.023105 -0.999719
vn -0.837988 -0.544870 0.029865
vn -0.695572 -0.718366 0.011407
vn 0.015268 -0.998876 -0.044876
vn -0.401913 -0.914483 -0.046768
vn -0.381274 -0.924455 0.003641
vn 0.017831 -0.999827 0.005380
vn 0.366542 -0.929545 -0.039921
vn 0.380599 -0.924692 0.009401
vn 0.680223 -0.732601 0.024352
vn 0.803107 -0.595145 0.028656
vn -0.182794 -0.503355 -0.844524
vn -0.115273 -0.317374 -0.941269
vn -0.326656 -0.815451 -0.477845
vn 0.004129 -0.576088 -0.817377
vn 0.004057 -0.405952 -0.913886
vn 0.004008 -0.890158 -0.455635
vn 0.178688 -0.527971 -0.830252
vn 0.117948 -0.334629 -0.934940
vn 0.304634 -0.831786 -0.464037
s 1
g floorWithDrain_01_low
usemtl initialShadingGroup
f 33/113/1 34/111/2 4/3/3 3/114/4
s 2
f 28/5/5 16/6/6 9/7/7
s 3
f 35/8/8 36/9/9 25/10/10 6/11/11
s 4
f 34/2/12 35/92/13 6/103/14 4/112/15
s 5
f 38/12/16 33/1/17 3/4/18 5/13/19
s 1
f 3/114/4 4/3/3 16/120/20 15/109/21
s 4
f 4/112/15 6/103/14 9/102/22 16/110/23
s 3
f 18/15/24 26/16/25 27/106/26 20/18/27
s 5
f 5/13/19 3/4/18 15/115/28 10/98/29
s 4
f 8/93/30 2/118/31 13/119/32 12/23/33
s 1
f 2/21/34 1/116/35 14/117/36 13/22/37
s 5
f 1/24/38 7/91/39 11/95/40 14/25/41
s 3
f 6/11/11 25/10/10 26/16/25 18/15/24
s 5
f 5/13/19 10/98/29 19/97/42 17/29/43
s 2
f 27/17/44 28/5/5 9/7/7 20/107/45
s 4
f 9/102/22 6/103/14 18/100/46 20/101/47
s 6
f 39/30/48 40/79/49 41/32/50 42/33/51
s 3
f 22/34/52 21/35/53 29/36/54 30/37/55
f 23/38/56 22/34/52 30/37/55 31/104/57
s 2
f 31/39/58 32/40/59 24/41/60 23/105/61
f 32/40/59 15/14/62 24/41/60
s 6
f 42/33/51 41/32/50 43/81/63 44/43/64
s 3
f 26/16/25 25/10/10 21/35/53 22/34/52
f 27/106/26 26/16/25 22/34/52 23/38/56
s 2
f 23/105/61 24/41/60 28/5/5 27/17/44
f 24/41/60 15/14/62 16/6/6 28/5/5
s 3
f 5/99/65 29/36/54 37/84/66 38/90/67
f 30/37/55 29/36/54 5/99/65 17/96/68
f 31/104/57 30/37/55 17/96/68 19/108/69
s 2
f 10/19/70 32/40/59 31/39/58 19/28/71
f 15/14/62 32/40/59 10/19/70
s 1
f 1/116/35 2/21/34 34/111/2 33/113/1
s 4
f 2/118/31 8/93/30 35/92/13 34/2/12
s 5
f 7/91/39 1/24/38 33/1/17 38/12/16
s 6
f 44/43/64 43/81/63 45/82/72
f 41/32/50 49/76/73 43/81/63
f 41/32/50 48/78/74 46/77/75
f 47/49/76 40/79/49 39/30/48
f 41/32/50 46/77/75 49/76/73
f 40/79/49 48/78/74 41/32/50
s 8
f 53/50/77 52/51/78 55/52/79 54/53/80
f 52/51/78 51/54/81 56/55/82 55/52/79
f 51/54/81 50/56/83 57/89/84 56/55/82
f 71/83/85 70/59/86 73/60/87 72/61/88
f 70/59/86 69/62/89 74/63/90 73/60/87
f 69/62/89 68/64/91 75/65/92 74/63/90
s 3
f 57/57/93 50/85/94 8/20/95 12/94/96
f 64/66/97 37/84/66 29/36/54 21/35/53
f 36/9/9 64/66/97 21/35/53 25/10/10
f 7/26/98 71/58/99 72/88/100 11/27/101
f 50/85/94 36/9/9 35/8/8 8/20/95
f 38/90/67 37/84/66 71/58/99 7/26/98
s 8
f 53/50/77 54/53/80 45/45/102 43/42/103
f 61/67/104 58/68/105 49/46/106 46/48/107
f 68/64/91 65/69/108 48/47/109 40/31/110
f 75/65/92 68/64/91 40/31/110 47/80/111
f 48/47/109 65/69/108 61/67/104 46/48/107
f 49/46/106 58/68/105 53/50/77 43/42/103
f 50/56/83 51/54/81 60/70/112 36/86/113
f 51/54/81 52/51/78 59/71/114 60/70/112
f 52/51/78 53/50/77 58/68/105 59/71/114
f 36/86/113 60/70/112 63/72/115 64/87/116
f 60/70/112 59/71/114 62/73/117 63/72/115
f 59/71/114 58/68/105 61/67/104 62/73/117
f 64/87/116 63/72/115 67/74/118 37/44/119
f 63/72/115 62/73/117 66/75/120 67/74/118
f 62/73/117 61/67/104 65/69/108 66/75/120
f 37/44/119 67/74/118 70/59/86 71/83/85
f 67/74/118 66/75/120 69/62/89 70/59/86
f 66/75/120 65/69/108 68/64/91 69/62/89
