# This file uses centimeters as units for non-parametric coordinates.

mtllib platformblock_01_low.mtl
g default
v -11.850193 -5.025365 5.811888
v 11.850193 -5.025365 5.811888
v -11.850193 5.025365 5.811888
v 11.850193 5.025365 5.811888
v -11.850193 5.025365 -5.811888
v 11.850193 5.025365 -5.811888
v -11.850193 -5.025365 -5.811888
v 11.850193 -5.025365 -5.811888
vt 0.999995 0.164524
vt 0.499992 0.000011
vt 0.335473 0.306809
vt 0.835476 0.471322
vt 0.500002 0.306804
vt 0.835471 0.306793
vt 0.499998 0.164540
vt 0.835466 0.164529
vt 0.335468 0.164546
vt 0.000000 0.164557
vt 0.835460 0.000000
vt 0.500008 0.471333
vt 0.000005 0.306821
vt 1.000000 0.306787
vn -0.305454 -0.720284 0.622808
vn 0.305454 -0.720284 0.622808
vn 0.305454 0.720284 0.622808
vn -0.305454 0.720284 0.622808
vn 0.305454 0.720284 -0.622808
vn -0.305454 0.720284 -0.622808
vn 0.305454 -0.720284 -0.622808
vn -0.305454 -0.720284 -0.622808
s 1
g platformblock_01_low
usemtl initialShadingGroup
f 1/10/1 2/9/2 4/3/3 3/13/4
f 3/4/4 4/12/3 6/5/5 5/6/6
f 5/6/6 6/5/5 8/7/7 7/8/8
f 7/8/8 8/7/7 2/2/2 1/11/1
f 2/9/2 8/7/7 6/5/5 4/3/3
f 7/8/8 1/1/1 3/14/4 5/6/6
