# This file uses centimeters as units for non-parametric coordinates.

mtllib stairs_01_low.mtl
g default
v 23.133759 -0.000001 -49.018097
v 23.133759 -0.000001 49.018097
v -27.115353 -0.000001 -49.018097
v -27.115353 18.073887 -49.018097
v -27.115353 18.073887 49.018097
v -27.115353 -0.000000 49.018097
v 8.059029 -0.000001 -49.018097
v 8.059029 18.073887 -49.018097
v 8.059029 18.073887 49.018654
v 8.059029 -0.000001 49.018097
v -9.528160 -0.000001 -49.018097
v -9.528160 18.073887 -49.018097
v -9.528160 18.073887 49.018654
v -9.528160 -0.000001 49.018097
v -27.115353 9.036943 -49.018097
v -9.528160 9.036944 -49.018097
v 8.059029 9.036943 -49.018097
v 23.133759 9.036944 -49.018097
v 23.133759 9.036943 49.018654
v 8.059029 9.036943 49.018654
v -9.528160 9.036943 49.018097
v -27.115353 9.036943 49.018097
v -27.115353 25.556726 49.018097
v -9.528160 25.556726 49.018097
v -9.528160 25.556726 -50.532299
v -27.115353 25.556726 -50.532299
vt 0.797872 0.276630
vt 0.607568 0.770925
vt 0.726106 0.770908
vt 0.797167 0.770897
vt 0.725993 0.000006
vt 0.544305 0.913038
vt 0.607454 0.000024
vt 0.662844 0.913040
vt 0.797845 0.138335
vt 0.868906 0.138321
vt 0.801140 0.841980
vt 0.801139 0.913041
vt 0.797818 0.000040
vt 0.071174 0.771004
vt 0.071061 0.000107
vt 0.000000 0.000117
vt 0.142236 0.770994
vt 0.398212 0.770956
vt 0.536507 0.770936
vt 0.536393 0.000034
vt 0.398098 0.000054
vt 0.142122 0.000096
vt 0.339258 0.000067
vt 0.200963 0.000088
vt 0.201078 0.782892
vt 0.339373 0.782871
vt 0.999973 0.000000
vt 0.868933 0.276616
vt 0.868956 0.395154
vt 0.797895 0.395168
vt 0.939994 0.276602
vt 0.868879 0.000026
vt 0.939939 0.000012
vt 0.000113 0.771015
vt 0.939436 0.712080
vt 0.801141 0.712078
vt 0.801141 0.770919
vt 0.939436 0.770921
vt 0.544306 0.841977
vt 0.662845 0.841978
vt 0.939435 0.841982
vt 0.939434 0.913043
vt 0.797054 0.000000
vt 0.662846 0.770917
vt 0.939967 0.138307
vt 1.000000 0.138295
vn 0.000000 0.000000 -1.000000
vn 0.000000 0.000000 -1.000000
vn 0.000000 0.000000 -1.000000
vn 0.000000 0.000000 -1.000000
vn 0.514164 0.857692 0.000000
vn 0.514150 0.857701 0.000000
vn 1.000000 0.000000 0.000000
vn 1.000000 0.000000 0.000000
vn 0.000000 -0.000062 1.000000
vn -0.000011 -0.000040 1.000000
vn -0.000008 -0.000045 1.000000
vn 0.000000 -0.000062 1.000000
vn 0.000000 0.000000 -1.000000
vn -0.000000 0.000000 -1.000000
vn -0.000012 -0.000023 1.000000
vn -0.000008 -0.000015 1.000000
vn 0.000000 0.000000 -1.000000
vn -0.000000 0.000000 -1.000000
vn -0.000008 -0.000015 1.000000
vn -0.000000 0.000000 1.000000
vn -0.000000 -0.091277 -0.995826
vn -0.000000 -0.059145 -0.998249
vn 0.000000 0.000000 -1.000000
vn -0.000016 -0.000031 1.000000
vn -0.000016 -0.000011 1.000000
vn -0.000016 0.000000 1.000000
vn -0.000016 0.000037 1.000000
vn -0.000016 0.000037 1.000000
vn 0.000000 -0.198337 -0.980134
vn 0.000000 -0.198337 -0.980134
vn -1.000000 0.000000 0.000000
vn -1.000000 0.000000 0.000000
vn -1.000000 0.000000 0.000000
vn -1.000000 0.000000 0.000000
vn -0.345825 0.938299 0.000000
vn -1.000000 -0.000000 0.000000
vn -1.000000 -0.000000 0.000000
vn -0.388982 0.921245 0.000000
vn 0.457032 0.889450 0.000000
vn 0.435111 0.900377 0.000000
vn 0.394047 0.919091 0.000000
vn 0.457032 0.889450 0.000000
vn 0.345826 0.938299 0.000000
vn 0.388999 0.921238 0.000000
vn 0.514165 0.857691 0.000000
vn 0.514165 0.857691 0.000000
s 1
g stairs_01_low
usemtl initialShadingGroup
f 7/1/1 17/28/2 18/29/3 1/30/4
s 2
f 18/3/5 19/5/6 2/43/7 1/4/8
s 3
f 19/39/9 20/40/10 10/8/11 2/6/12
s 1
f 11/9/13 16/10/14 17/28/2 7/1/1
s 3
f 10/8/11 20/40/10 21/11/15 14/12/16
s 1
f 3/13/17 15/32/18 16/10/14 11/9/13
s 3
f 14/12/16 21/11/15 22/41/19 6/42/20
s 1
f 16/10/14 15/32/18 4/33/21 12/45/22
f 17/28/2 16/10/14 12/45/22 8/31/23
s 3
f 21/11/15 20/40/10 9/44/24 13/37/25
f 22/41/19 21/11/15 13/37/25 5/38/26
f 24/36/27 23/35/28 5/38/26 13/37/25
s 1
f 4/33/21 26/27/29 25/46/30 12/45/22
s 2
f 15/14/31 3/34/32 6/16/33 22/15/34
f 26/25/35 4/17/36 5/22/37 23/24/38
f 4/17/36 15/14/31 22/15/34 5/22/37
f 8/19/39 12/18/40 13/21/41 9/20/42
f 12/18/40 25/26/43 24/23/44 13/21/41
f 17/2/45 8/19/39 9/20/42 20/7/46
f 18/3/5 17/2/45 20/7/46 19/5/6
f 25/26/43 26/25/35 23/24/38 24/23/44
