# This file uses centimeters as units for non-parametric coordinates.

mtllib stairBlock_01_low.mtl
g default
v 23.133759 18.073887 49.018097
v 23.133759 18.073887 -49.018097
v 23.133759 -0.000001 -49.018097
v 23.133759 -0.000000 49.018097
v -27.115353 -0.000001 -49.018097
v -27.115353 18.073887 -49.018097
v -27.115353 18.073887 49.018097
v -27.115353 -0.000001 49.018097
v 23.133759 25.556726 49.018097
v 23.133759 25.556726 -50.532299
v -27.115353 25.556726 -50.532299
v -27.115353 25.556726 49.018097
vt 1.000000 0.502089
vt 0.819671 0.551964
vt 0.879695 0.169272
vt 0.818798 0.000000
vt 0.119778 0.170474
vt 0.000000 0.170663
vt 0.120305 0.503481
vt 0.170162 0.672770
vt 0.829101 0.169352
vt 0.169368 0.170395
vt 0.829627 0.502359
vt 0.169894 0.503402
vt 0.169973 0.552992
vt 0.818987 0.119778
vt 0.000527 0.503670
vt 0.819860 0.671742
vt 0.169289 0.120805
vt 0.169100 0.001028
vt 0.999473 0.169082
vt 0.880222 0.502279
vn -0.889913 0.000000 -0.456131
vn -0.896633 -0.026188 -0.441999
vn 0.896633 -0.026188 -0.441999
vn 0.889913 0.000000 -0.456131
vn 0.890330 0.000000 0.455315
vn 0.889913 0.000000 0.456131
vn -0.890330 -0.000000 0.455315
vn -0.889913 0.000000 0.456131
vn 0.129511 0.988702 -0.075465
vn 0.145792 0.986532 0.074154
vn -0.129511 0.988702 -0.075465
vn -0.145792 0.986532 0.074154
s 1
g stairBlock_01_low
usemtl initialShadingGroup
f 5/1/1 6/20/2 2/3/3 3/19/4
f 2/14/3 1/17/5 4/18/6 3/4/4
f 1/5/5 7/7/7 8/15/8 4/6/6
f 6/2/2 5/16/1 8/8/8 7/13/7
f 1/17/5 2/14/3 10/9/9 9/10/10
f 6/20/2 11/11/11 10/9/9 2/3/3
f 12/12/12 11/11/11 6/2/2 7/13/7
f 9/10/10 12/12/12 7/7/7 1/5/5
f 9/10/10 10/9/9 11/11/11 12/12/12
