# This file uses centimeters as units for non-parametric coordinates.

mtllib posterTwo_01_low.mtl
g default
v -17.947260 0.592176 11.895679
v -14.357808 0.592176 11.895679
v -10.768356 0.592176 11.895679
v -7.178904 0.592176 11.895679
v -3.589452 0.592176 11.895679
v 0.000000 0.592176 11.895679
v 3.589453 0.592176 11.895679
v 7.178904 0.592176 11.895679
v 10.768356 0.592176 11.895679
v 14.357809 0.592176 11.895679
v 17.947260 0.592176 11.895679
v -17.947260 0.124133 9.547043
v -14.357808 0.124133 9.547043
v -10.768356 0.124133 9.547043
v -7.178904 0.124133 9.547043
v -3.589452 0.124133 9.547043
v 0.000000 0.124133 9.547043
v 3.589453 0.124133 9.547043
v 7.178904 0.124133 9.547043
v 10.768356 0.124133 9.547043
v 14.357809 0.124133 9.547043
v 17.947260 0.124133 9.547043
v -17.947260 -0.000776 7.137928
v -14.357808 -0.000776 7.137928
v -10.768356 0.001217 7.137928
v -7.178904 0.001217 7.137928
v -3.589452 -0.000776 7.137928
v 0.000000 -0.000776 7.137928
v 3.589453 -0.000776 7.137928
v 7.178904 0.001235 7.137928
v 10.768356 0.001235 7.137928
v 14.357809 -0.000776 7.137928
v 17.947260 -0.000776 7.137928
v -17.947260 0.000000 4.758272
v -14.357808 0.016257 4.758272
v -10.768356 0.187092 4.758272
v -7.178904 0.187092 4.758272
v -3.589452 0.016257 4.758272
v 0.000000 0.000000 4.758272
v 3.589453 0.016407 4.758272
v 7.178904 0.188812 4.758272
v 10.768356 0.188812 4.758272
v 14.357809 0.016407 4.758272
v 17.947260 0.000000 4.758272
v -17.947260 0.000000 2.379136
v -14.357808 0.063942 2.379136
v -10.768356 0.347798 2.379136
v -7.178904 0.347798 2.379136
v -3.589452 0.063942 2.379136
v 0.000000 0.000000 2.379136
v 3.589453 0.064530 2.379136
v 7.178904 0.350994 2.379136
v 10.768356 0.350994 2.379136
v 14.357809 0.064530 2.379136
v 17.947260 0.000000 2.379136
v -17.947260 0.000000 0.000000
v -14.357808 0.018379 0.000000
v -10.768356 0.187092 0.000000
v -7.178904 0.187092 0.000000
v -3.589452 0.016257 0.000000
v 0.000000 0.000000 0.000000
v 3.589453 0.016407 0.000000
v 7.178904 0.188812 0.000000
v 10.768356 0.188812 0.000000
v 14.357809 0.016407 0.000000
v 17.947260 0.000000 0.000000
v -17.947260 0.017233 -2.379137
v -14.357808 0.198321 -2.379137
v -10.768356 0.019226 -2.379137
v -7.178904 0.001993 -2.379137
v -3.589452 0.000000 -2.379137
v 0.000000 0.000000 -2.379137
v 3.589453 0.000000 -2.379137
v 7.178904 0.000826 -2.379137
v 10.768356 0.000826 -2.379137
v 14.357809 0.000000 -2.379137
v 17.947260 0.000000 -2.379137
v -17.947260 0.067780 -4.758272
v -14.357808 0.368671 -4.758272
v -10.768356 0.067780 -4.758272
v -7.178904 0.000000 -4.758272
v -3.589452 0.000000 -4.758272
v 0.000000 0.000000 -4.758272
v 3.589453 -0.009635 -4.758272
v 7.178904 -0.110897 -4.758272
v 10.768356 -0.110897 -4.758272
v 14.357809 -0.009635 -4.758272
v 17.947260 0.000000 -4.758272
v -17.947260 0.068491 -7.137521
v -14.357808 0.369382 -7.137521
v -10.768356 0.068491 -7.137521
v -7.178904 0.000711 -7.137521
v -3.589452 0.000711 -7.137521
v 0.000000 0.000711 -7.137521
v 3.589453 -0.037192 -7.137521
v 7.178904 -0.205456 -7.137521
v 10.768356 -0.205456 -7.137521
v 14.357809 -0.037192 -7.137521
v 17.947260 0.000711 -7.137521
v -17.947260 0.151155 -9.522430
v -14.357808 0.331401 -9.522430
v -10.768356 0.151155 -9.522430
v -7.178904 0.134178 -9.522430
v -3.589452 0.134178 -9.522430
v 0.000000 0.134178 -9.522430
v 3.589453 0.124684 -9.522430
v 7.178904 0.023887 -9.522430
v 10.768356 0.023887 -9.522430
v 14.357809 0.124684 -9.522430
v 17.947260 0.134178 -9.522430
v -17.947260 0.375012 -11.895679
v -14.357808 0.376887 -11.895679
v -10.768356 0.375012 -11.895679
v -7.178904 0.375012 -11.895679
v -3.589452 0.375012 -11.895679
v 0.000000 0.375012 -11.895679
v 3.589453 0.375012 -11.895679
v 7.178904 0.373964 -11.895679
v 10.768356 0.373964 -11.895679
v 14.357809 0.375012 -11.895679
v 17.947260 0.375012 -11.895679
vt 0.000445 0.000024
vt 0.100370 0.000019
vt 0.200320 0.000000
vt 0.300292 0.000006
vt 0.400250 0.000046
vt 0.500184 0.000065
vt 0.600121 0.000042
vt 0.700090 0.000000
vt 0.800087 0.000007
vt 0.900065 0.000077
vt 1.000000 0.000149
vt 0.000440 0.066690
vt 0.100365 0.066683
vt 0.200315 0.066658
vt 0.300289 0.066663
vt 0.400245 0.066713
vt 0.500179 0.066734
vt 0.600116 0.066707
vt 0.700081 0.066655
vt 0.800073 0.066661
vt 0.900039 0.066744
vt 0.999969 0.066819
vt 0.000426 0.133850
vt 0.100349 0.133843
vt 0.200300 0.133791
vt 0.300293 0.133790
vt 0.400245 0.133881
vt 0.500173 0.133907
vt 0.600102 0.133870
vt 0.700062 0.133778
vt 0.800068 0.133778
vt 0.900023 0.133908
vt 0.999945 0.133992
vt 0.000405 0.200109
vt 0.100325 0.200110
vt 0.200336 0.200189
vt 0.300237 0.200194
vt 0.400251 0.200161
vt 0.500169 0.200186
vt 0.600088 0.200143
vt 0.700102 0.200162
vt 0.800005 0.200173
vt 0.900014 0.200184
vt 0.999925 0.200266
vt 0.000373 0.266361
vt 0.100300 0.266404
vt 0.200436 0.266481
vt 0.300111 0.266499
vt 0.400253 0.266475
vt 0.500174 0.266467
vt 0.600087 0.266450
vt 0.700219 0.266422
vt 0.799869 0.266466
vt 0.900000 0.266495
vt 0.999916 0.266539
vt 0.000322 0.332616
vt 0.100229 0.332685
vt 0.200283 0.332828
vt 0.300256 0.332760
vt 0.400275 0.332784
vt 0.500184 0.332752
vt 0.600084 0.332768
vt 0.700085 0.332709
vt 0.799986 0.332718
vt 0.899996 0.332806
vt 0.999906 0.332818
vt 0.000277 0.398882
vt 0.100358 0.399119
vt 0.200440 0.399172
vt 0.300370 0.399136
vt 0.400292 0.399055
vt 0.500195 0.399033
vt 0.600097 0.399043
vt 0.700028 0.399071
vt 0.800030 0.399065
vt 0.899975 0.399076
vt 0.999890 0.399091
vt 0.000139 0.465164
vt 0.100290 0.465516
vt 0.200455 0.465368
vt 0.300388 0.465338
vt 0.400299 0.465309
vt 0.500204 0.465309
vt 0.600109 0.465310
vt 0.700065 0.465300
vt 0.800013 0.465298
vt 0.899962 0.465342
vt 0.999869 0.465361
vt 0.000000 0.531490
vt 0.100262 0.531701
vt 0.200486 0.531568
vt 0.300387 0.531555
vt 0.400289 0.531561
vt 0.500206 0.531582
vt 0.600136 0.531598
vt 0.700137 0.531493
vt 0.799932 0.531515
vt 0.899928 0.531628
vt 0.999850 0.531621
vt 0.000152 0.597952
vt 0.100269 0.598092
vt 0.200388 0.597968
vt 0.300324 0.598034
vt 0.400250 0.598063
vt 0.500172 0.598102
vt 0.600100 0.598194
vt 0.700065 0.598128
vt 0.800000 0.598133
vt 0.899963 0.598216
vt 0.999890 0.598131
vt 0.000375 0.664291
vt 0.100292 0.664193
vt 0.200249 0.664304
vt 0.300246 0.664428
vt 0.400199 0.664465
vt 0.500117 0.664513
vt 0.600028 0.664643
vt 0.700004 0.664893
vt 0.800065 0.664879
vt 0.900035 0.664659
vt 0.999955 0.664541
vn 0.000000 0.980716 -0.195440
vn 0.000000 0.980716 -0.195440
vn -0.000070 0.992336 -0.123570
vn 0.000000 0.992323 -0.123672
vn 0.000000 0.980716 -0.195440
vn -0.000070 0.992361 -0.123365
vn 0.000000 0.980716 -0.195440
vn 0.000070 0.992361 -0.123365
vn 0.000000 0.980716 -0.195440
vn 0.000070 0.992336 -0.123570
vn 0.000000 0.980716 -0.195440
vn 0.000000 0.992323 -0.123672
vn 0.000000 0.980716 -0.195440
vn -0.000070 0.992336 -0.123569
vn 0.000000 0.980716 -0.195440
vn -0.000070 0.992362 -0.123362
vn 0.000000 0.980716 -0.195440
vn 0.000070 0.992362 -0.123362
vn 0.000000 0.980716 -0.195440
vn 0.000070 0.992336 -0.123569
vn 0.000000 0.980716 -0.195440
vn 0.000000 0.992323 -0.123672
vn -0.006613 0.999874 -0.014455
vn -0.001125 0.999706 -0.024217
vn -0.006051 0.999973 0.004229
vn 0.006051 0.999973 0.004229
vn 0.006613 0.999874 -0.014455
vn -0.000005 0.999707 -0.024209
vn -0.006674 0.999875 -0.014350
vn -0.006107 0.999971 0.004506
vn 0.006107 0.999971 0.004506
vn 0.006674 0.999875 -0.014350
vn 0.001135 0.999707 -0.024201
vn -0.025189 0.999369 0.025030
vn -0.006717 0.999954 0.006881
vn -0.021830 0.998083 0.057913
vn 0.021830 0.998083 0.057913
vn 0.025189 0.999369 0.025030
vn -0.000031 0.999976 0.006912
vn -0.025420 0.999358 0.025258
vn -0.022030 0.998048 0.058441
vn 0.022030 0.998048 0.058441
vn 0.025420 0.999358 0.025258
vn 0.006779 0.999953 0.006943
vn -0.037244 0.999306 0.000223
vn -0.011319 0.999936 0.000223
vn -0.031525 0.999503 0.000111
vn 0.031599 0.999501 0.000000
vn 0.037245 0.999306 0.000000
vn -0.000051 1.000000 0.000000
vn -0.037587 0.999293 0.000000
vn -0.031888 0.999492 0.000000
vn 0.031888 0.999491 -0.000000
vn 0.037587 0.999293 0.000000
vn 0.011274 0.999936 0.000000
vn -0.025213 0.999680 -0.002231
vn -0.019620 0.999681 0.015926
vn -0.014815 0.998850 -0.045606
vn 0.022431 0.998130 -0.056855
vn 0.025190 0.999373 -0.024870
vn -0.000031 0.999977 -0.006750
vn -0.025380 0.999361 -0.025160
vn -0.021990 0.998047 -0.058471
vn 0.021990 0.998047 -0.058471
vn 0.025380 0.999361 -0.025160
vn 0.006780 0.999954 -0.006780
vn -0.006635 0.999396 0.034109
vn -0.047354 0.997916 0.043838
vn 0.020635 0.999779 -0.003977
vn 0.009645 0.999595 -0.026769
vn 0.006654 0.999911 -0.011537
vn 0.000330 0.999997 -0.002222
vn -0.002770 0.999825 -0.018480
vn -0.002532 0.998818 -0.048551
vn 0.002532 0.998818 -0.048551
vn 0.002770 0.999825 -0.018480
vn 0.000472 0.999996 -0.002737
vn -0.000069 0.999731 0.023206
vn -0.075243 0.996893 0.023301
vn 0.045310 0.998874 0.014090
vn 0.007750 0.999967 0.002491
vn 0.000069 1.000000 0.000045
vn 0.001991 0.999996 -0.001842
vn 0.014870 0.999781 -0.014705
vn 0.012879 0.999324 -0.034445
vn -0.012879 0.999324 -0.034445
vn -0.014870 0.999781 -0.014705
vn -0.003982 0.999985 -0.003833
vn 0.000000 0.999988 0.004837
vn -0.075207 0.997156 0.004821
vn 0.045313 0.998877 0.013825
vn 0.007667 0.999646 0.025486
vn 0.000000 0.999604 0.028153
vn 0.003305 0.999598 0.028163
vn 0.022059 0.999359 0.028212
vn 0.018726 0.999426 0.028228
vn -0.018726 0.999426 0.028228
vn -0.022059 0.999359 0.028212
vn -0.006609 0.999581 0.028173
vn 0.000000 0.999456 0.032982
vn -0.046214 0.998390 0.032897
vn 0.026637 0.998283 0.052169
vn 0.003539 0.997186 0.074890
vn 0.000000 0.996920 0.078423
vn 0.001978 0.996761 0.080397
vn 0.014842 0.995553 0.093027
vn 0.012858 0.993598 0.112243
vn -0.012858 0.993598 0.112243
vn -0.014842 0.995553 0.093027
vn -0.003955 0.996594 0.082369
vn 0.000000 0.998394 0.056655
vn -0.025320 0.998074 0.056636
vn 0.013824 0.996929 0.077086
vn 0.001177 0.995067 0.099199
vn 0.000000 0.994890 0.100960
vn 0.000658 0.994790 0.101945
vn 0.007704 0.993424 0.114230
vn 0.007028 0.990721 0.135731
vn -0.007028 0.990721 0.135731
vn -0.007704 0.993424 0.114230
vn -0.001315 0.994688 0.102929
s 1
g posterTwo_01_low
usemtl initialShadingGroup
f 1/1/1 2/2/2 13/13/3 12/12/4
f 2/2/2 3/3/5 14/14/6 13/13/3
f 3/3/5 4/4/7 15/15/8 14/14/6
f 4/4/7 5/5/9 16/16/10 15/15/8
f 5/5/9 6/6/11 17/17/12 16/16/10
f 6/6/11 7/7/13 18/18/14 17/17/12
f 7/7/13 8/8/15 19/19/16 18/18/14
f 8/8/15 9/9/17 20/20/18 19/19/16
f 9/9/17 10/10/19 21/21/20 20/20/18
f 10/10/19 11/11/21 22/22/22 21/21/20
f 12/12/4 13/13/3 24/24/23 23/23/24
f 13/13/3 14/14/6 25/25/25 24/24/23
f 14/14/6 15/15/8 26/26/26 25/25/25
f 15/15/8 16/16/10 27/27/27 26/26/26
f 16/16/10 17/17/12 28/28/28 27/27/27
f 17/17/12 18/18/14 29/29/29 28/28/28
f 18/18/14 19/19/16 30/30/30 29/29/29
f 19/19/16 20/20/18 31/31/31 30/30/30
f 20/20/18 21/21/20 32/32/32 31/31/31
f 21/21/20 22/22/22 33/33/33 32/32/32
f 23/23/24 24/24/23 35/35/34 34/34/35
f 24/24/23 25/25/25 36/36/36 35/35/34
f 25/25/25 26/26/26 37/37/37 36/36/36
f 26/26/26 27/27/27 38/38/38 37/37/37
f 27/27/27 28/28/28 39/39/39 38/38/38
f 28/28/28 29/29/29 40/40/40 39/39/39
f 29/29/29 30/30/30 41/41/41 40/40/40
f 30/30/30 31/31/31 42/42/42 41/41/41
f 31/31/31 32/32/32 43/43/43 42/42/42
f 32/32/32 33/33/33 44/44/44 43/43/43
f 34/34/35 35/35/34 46/46/45 45/45/46
f 35/35/34 36/36/36 47/47/47 46/46/45
f 36/36/36 37/37/37 48/48/48 47/47/47
f 37/37/37 38/38/38 49/49/49 48/48/48
f 38/38/38 39/39/39 50/50/50 49/49/49
f 39/39/39 40/40/40 51/51/51 50/50/50
f 40/40/40 41/41/41 52/52/52 51/51/51
f 41/41/41 42/42/42 53/53/53 52/52/52
f 42/42/42 43/43/43 54/54/54 53/53/53
f 43/43/43 44/44/44 55/55/55 54/54/54
f 45/45/46 46/46/45 57/57/56 56/56/57
f 46/46/45 47/47/47 58/58/58 57/57/56
f 47/47/47 48/48/48 59/59/59 58/58/58
f 48/48/48 49/49/49 60/60/60 59/59/59
f 49/49/49 50/50/50 61/61/61 60/60/60
f 50/50/50 51/51/51 62/62/62 61/61/61
f 51/51/51 52/52/52 63/63/63 62/62/62
f 52/52/52 53/53/53 64/64/64 63/63/63
f 53/53/53 54/54/54 65/65/65 64/64/64
f 54/54/54 55/55/55 66/66/66 65/65/65
f 56/56/57 57/57/56 68/68/67 67/67/68
f 57/57/56 58/58/58 69/69/69 68/68/67
f 58/58/58 59/59/59 70/70/70 69/69/69
f 59/59/59 60/60/60 71/71/71 70/70/70
f 60/60/60 61/61/61 72/72/72 71/71/71
f 61/61/61 62/62/62 73/73/73 72/72/72
f 62/62/62 63/63/63 74/74/74 73/73/73
f 63/63/63 64/64/64 75/75/75 74/74/74
f 64/64/64 65/65/65 76/76/76 75/75/75
f 65/65/65 66/66/66 77/77/77 76/76/76
f 67/67/68 68/68/67 79/79/78 78/78/79
f 68/68/67 69/69/69 80/80/80 79/79/78
f 69/69/69 70/70/70 81/81/81 80/80/80
f 70/70/70 71/71/71 82/82/82 81/81/81
f 71/71/71 72/72/72 83/83/83 82/82/82
f 72/72/72 73/73/73 84/84/84 83/83/83
f 73/73/73 74/74/74 85/85/85 84/84/84
f 74/74/74 75/75/75 86/86/86 85/85/85
f 75/75/75 76/76/76 87/87/87 86/86/86
f 76/76/76 77/77/77 88/88/88 87/87/87
f 78/78/79 79/79/78 90/90/89 89/89/90
f 79/79/78 80/80/80 91/91/91 90/90/89
f 80/80/80 81/81/81 92/92/92 91/91/91
f 81/81/81 82/82/82 93/93/93 92/92/92
f 82/82/82 83/83/83 94/94/94 93/93/93
f 83/83/83 84/84/84 95/95/95 94/94/94
f 84/84/84 85/85/85 96/96/96 95/95/95
f 85/85/85 86/86/86 97/97/97 96/96/96
f 86/86/86 87/87/87 98/98/98 97/97/97
f 87/87/87 88/88/88 99/99/99 98/98/98
f 89/89/90 90/90/89 101/101/100 100/100/101
f 90/90/89 91/91/91 102/102/102 101/101/100
f 91/91/91 92/92/92 103/103/103 102/102/102
f 92/92/92 93/93/93 104/104/104 103/103/103
f 93/93/93 94/94/94 105/105/105 104/104/104
f 94/94/94 95/95/95 106/106/106 105/105/105
f 95/95/95 96/96/96 107/107/107 106/106/106
f 96/96/96 97/97/97 108/108/108 107/107/107
f 97/97/97 98/98/98 109/109/109 108/108/108
f 98/98/98 99/99/99 110/110/110 109/109/109
f 100/100/101 101/101/100 112/112/111 111/111/112
f 101/101/100 102/102/102 113/113/113 112/112/111
f 102/102/102 103/103/103 114/114/114 113/113/113
f 103/103/103 104/104/104 115/115/115 114/114/114
f 104/104/104 105/105/105 116/116/116 115/115/115
f 105/105/105 106/106/106 117/117/117 116/116/116
f 106/106/106 107/107/107 118/118/118 117/117/117
f 107/107/107 108/108/108 119/119/119 118/118/118
f 108/108/108 109/109/109 120/120/120 119/119/119
f 109/109/109 110/110/110 121/121/121 120/120/120
